<?xml version="1.0" encoding="UTF-8" standalone="no"?>
<svg
   width="27.833515"
   height="30.485165"
   viewBox="0 0 27.833515 32.390487"
   fill="none"
   version="1.1"
   id="svg32"
   sodipodi:docname="certik.svg"
   inkscape:version="1.2.2 (b0a8486541, 2022-12-01)"
   xmlns:inkscape="http://www.inkscape.org/namespaces/inkscape"
   xmlns:sodipodi="http://sodipodi.sourceforge.net/DTD/sodipodi-0.dtd"
   xmlns="http://www.w3.org/2000/svg"
   xmlns:svg="http://www.w3.org/2000/svg">
  <defs
     id="defs36" />
  <sodipodi:namedview
     id="namedview34"
     pagecolor="#ffffff"
     bordercolor="#666666"
     borderopacity="1.0"
     inkscape:showpageshadow="2"
     inkscape:pageopacity="0.0"
     inkscape:pagecheckerboard="0"
     inkscape:deskcolor="#d1d1d1"
     showgrid="false"
     inkscape:zoom="7.9310345"
     inkscape:cx="42.113043"
     inkscape:cy="14.5"
     inkscape:window-width="2560"
     inkscape:window-height="1371"
     inkscape:window-x="0"
     inkscape:window-y="1112"
     inkscape:window-maximized="1"
     inkscape:current-layer="svg32" />
  <path
     fill-rule="evenodd"
     clip-rule="evenodd"
     d="m 14.269426,0.37293171 c -0.1455,-0.036519 -0.3209,-0.036519 -0.4664,0 l -9.529329,2.91247999 -0.00496,0.00166 c -0.44634,0.14936 -0.66489,0.59972 -0.5563,1.03577 l 0.00249,0.01 0.00351,0.0097 c 0.1457,0.40225 0.58883,0.67181 1.04343,0.52132 l 9.288259,-2.83424 9.487501,2.91975 c 0.4589,0.15204 0.9023,-0.12359 1.0455,-0.55485 0.1526,-0.45966 -0.1206,-0.90606 -0.5521,-1.05047 L 14.279026,0.37533171 Z M -0.16907303,5.3725617 c -0.04398,-0.33887 0.1383,-0.67093 0.4199,-0.84055 l 0.00974,-0.00586 0.01034,-0.00472 c 0.09403,-0.04291 0.19222,-0.06788 0.29035,-0.07584 0.08104,-0.01146 0.16554,-0.01081 0.25145,0.00356 0.34639003,0.05796 0.60549003,0.31924 0.67061003,0.64364 l 5.45146,10.6792503 h 14.44715 c 0.0294,0 0.0584,0.0016 0.0871,0.0047 l 5.1457,-10.6667803 c 0.0401,-0.21926 0.1706,-0.41049 0.3641,-0.52483 0.2349,-0.16265 0.5506,-0.18785 0.8227,-0.0637 0.2721,0.12419 0.427,0.37212 0.4558,0.63952 l 0.1683,0.98588 c 0.0385,0.17253 0.2027,1.32198 0.2027,3.0632 0,1.7247103 -0.1717,3.9947103 -0.8014,6.5519103 -0.6012,2.4143 -1.6897,5.3197 -3.6671,8.1679 -1.9774,2.8482 -4.8419,5.6655 -8.9625,7.8778 l -0.0013,7e-4 -0.762401,0.4252 -0.0011,7e-4 c -0.2596,0.1484 -0.5331,0.1484 -0.7927,0 l -0.0011,-7e-4 -0.7624,-0.4252 -0.0013,-7e-4 c -4.120599,-2.2123 -6.985089,-5.0296 -8.962459,-7.8778 -1.9767701,-2.8473 -3.06589003,-5.7524 -3.61081003,-8.1985 -0.62925,-2.5565 -0.80091,-4.8543 -0.80091,-6.5498403 0,-1.7412 0.16422,-2.89064 0.20273,-3.06319 z M 7.778867,17.425642 h 12.81396 l -6.538801,12.2929 z M 1.173357,8.1032317 c -0.01442,0.32241 -0.02386,0.68371 -0.02386,1.07827 0,1.5863403 0.14114,3.7660403 0.7329299,6.1424403 0.56372,2.292 1.5782,4.9793 3.4089201,7.6373 1.56144,2.2426 3.71778,4.4867 6.733479,6.3983 z m 14.94557,21.2246103 c 2.9781,-1.8993 5.1388,-4.1139 6.6903,-6.3663 1.8306,-2.6577 2.8452,-5.3731 3.4091,-7.6376 0.5918,-2.3764 0.733,-4.5561 0.733,-6.1424403 0,-0.35211 -0.0076,-0.67773 -0.0194,-0.97287 l -3.9869,8.2644103 v 0.0327 z"
     fill="#ffffff"
     id="path2" />
  <path
     fill-rule="evenodd"
     clip-rule="evenodd"
     d="m 13.885926,0.95091171 -9.342289,2.85531999 -0.0012,4e-4 c -0.28014,0.09374 -0.42435,0.37295 -0.35499,0.66129 0.09744,0.26155 0.37878,0.41846 0.65305,0.32766 l 0.00329,-0.00108 9.207039,-2.80943 9.402101,2.89348 0.003,0.001 c 0.2736,0.09065 0.557,-0.06534 0.6541,-0.3579 0.0914,-0.2753 -0.0635,-0.55939 -0.3524,-0.65792 l -9.561401,-2.91066999 -0.0023,-5.8e-4 c -0.0936,-0.0235 -0.2132,-0.02402 -0.308,-0.00157 z m 0.4514,-0.56967 0.0165,0.00414 9.583401,2.91738999 0.0038,0.00128 c 0.5561,0.18606 0.9358,0.77719 0.7279,1.40319 -0.1836,0.55314 -0.769,0.93789 -1.395,0.73244 l -9.223901,-2.83862 -9.027969,2.75481 c -0.61525,0.20151 -1.20022,-0.16788 -1.39012,-0.69216 l -0.00864,-0.02386 -0.00613,-0.02461 c -0.1409301,-0.56594 0.14387,-1.16819 0.73837,-1.36713 l 0.00854,-0.00286 9.364849,-2.86219999 0.0072,-0.00181 c 0.1899,-0.047659 0.4113,-0.04766 0.6012,0 z M 0.77722697,4.3717917 c 0.10661,-0.01419 0.21686,-0.01275 0.32792003,0.00584 0.44667,0.07473 0.7876799,0.40463 0.8889399,0.8216 L 7.246267,15.488142 h 13.90376 l 4.9526,-10.2664603 c 0.0621,-0.27642 0.232,-0.51856 0.4796,-0.66824 0.3188,-0.21601 0.7349,-0.24376 1.0887,-0.08233 0.3673,0.1676 0.5759,0.50226 0.6169,0.85446 l 0.1627,0.95293 c 0.0466,0.22 0.2043,1.36427 0.2043,3.06283 0,1.7122103 -0.1705,3.9646103 -0.7952,6.5018103 l -2e-4,7e-4 c -0.5968,2.3965 -1.6779,5.2831 -3.6435,8.1144 -1.9658,2.8315 -4.8117,5.6292 -8.8995,7.824 l -7e-4,3e-4 -0.0013,8e-4 -0.741101,0.4133 -0.0011,6e-4 c -0.3454,0.1975 -0.7254,0.1977 -1.0707,2e-4 l -0.0013,-7e-4 -0.7414,-0.4135 -0.0012,-7e-4 -7e-4,-4e-4 c -4.087799,-2.1947 -6.933679,-4.9924 -8.899459,-7.8239 -1.9640901,-2.8291 -3.04689003,-5.7158 -3.58918003,-8.1484 -0.62372,-2.5353 -0.79393,-4.8137 -0.79393,-6.4965103 0,-1.69849 0.15765,-2.84273 0.2043,-3.0628 l 0.11707,-0.68556 c -0.03754,-0.44209 0.20346999624,-0.85466 0.55734,-1.06781 l 0.02396,-0.01444 0.02545,-0.01161 c 0.12087,-0.05515 0.24756,-0.08801 0.37475,-0.09932 z m 0.23073003,0.58672 c -0.05457,-0.00913 -0.10722003,-0.0094 -0.15699003,-0.00236 l -0.00868,0.00123 -0.00873,7e-4 c -0.06078,0.00494 -0.12204,0.02012 -0.18142,0.04651 -0.18345,0.11306 -0.2937,0.32833 -0.26727,0.532 l 0.0057,0.04387 -0.1337,0.78294 -0.00162,0.00726 c -0.03134,0.1404 -0.19193,1.2451 -0.19193,2.94267 0,1.6453103 0.16664,3.8766103 0.77763,6.3589103 l 7.8e-4,0.0031 7.1e-4,0.0032 c 0.52773003,2.369 1.58298993,5.1842 3.49883003,7.9438 1.91609,2.7599 4.69356,5.493 8.694959,7.6413 l 0.0054,0.0029 0.7512,0.4191 10e-4,5e-4 c 0.1642,0.094 0.3215,0.094 0.4857,0 l 9e-4,-4e-4 0.003,-0.0018 0.752501,-0.4197 0.0013,-6e-4 c 4.0013,-2.1483 6.7788,-4.8814 8.6949,-7.6413 1.9164,-2.7604 2.9722,-5.5775 3.5558,-7.9208 0.6112,-2.4828 0.7779,-4.6867 0.7779,-6.3602103 0,-1.69759 -0.1606,-2.80229 -0.1919,-2.94267 l -0.0016,-0.00726 -0.1681,-0.98408 -9e-4,-0.0091 c -0.0182,-0.16921 -0.1133,-0.31664 -0.2769,-0.3913 -0.1771,-0.08082 -0.3763,-0.0611 -0.5177,0.03675 l -0.0087,0.00603 -0.0091,0.00538 c -0.1148,0.06781 -0.1931,0.1814 -0.2175,0.31463 l -0.0072,0.03913 -5.1586,10.6934003 -0.2065,-0.0223 c -0.0177,-0.0019 -0.0356,-0.0029 -0.0539,-0.0029 H 6.885657 L 1.434097,5.3976117 1.426107,5.3578317 c -0.04013,-0.19987 -0.1999,-0.3628 -0.41815,-0.39932 z m 0.15821,2.16999 11.648159,22.8168403 -0.9096,-0.5766 c -2.995799,-1.899 -5.140299,-4.13 -6.693619,-6.361 l -8.5e-4,-0.0012 c -1.8209101,-2.6438 -2.8294201,-5.3159 -3.3895601,-7.5932 -0.5881199,-2.362 -0.7280299,-4.5264 -0.7280299,-6.1000103 0,-0.39199 0.00938,-0.75104 0.02372,-1.07158 z m 25.77586,0.04033 0.0473,1.17771 c 0.0118,0.29339 0.0193,0.61697 0.0193,0.96679 0,1.5737103 -0.14,3.7384103 -0.7282,6.1005103 -0.5601,2.2491 -1.5684,4.9489 -3.3897,7.593 -1.5447,2.2427 -3.694,4.4444 -6.6512,6.3304 l -0.945,0.6027 7.1926,-13.5106 v -0.0259 z m -25.2601201,2.26521 c 0.00711,1.5293003 0.15172,3.5939003 0.71043,5.8375003 l 2.1e-4,8e-4 c 0.54653,2.2222 1.5295301,4.8254 3.3023501,7.3995 1.34623,1.9334 3.14953,3.869 5.592829,5.5785 z M 23.076127,16.538042 v 0.0383 l -6.1826,11.6133 c 2.3946,-1.6884 4.1847,-3.5896 5.5122,-5.5169 1.7727,-2.5736 2.7562,-5.2046 3.3032,-7.4012 0.5375,-2.1584 0.6917,-4.1511 0.709,-5.6609003 z m -15.66256,0.5732 h 13.54936 l -6.914101,12.9983 z m 0.96186,0.589 5.684199,11.135 5.922901,-11.135 z"
     fill="#ffffff"
     id="path4" />
  <path
     d="m 14.265626,0.66686171 0.0717,-0.28562 m 0,0 c -0.1899,-0.04766 -0.4113,-0.047659 -0.6012,0 l -0.0072,0.00181 -9.364849,2.86219999 -0.00854,0.00286 c -0.5945,0.19894 -0.8793001,0.80119 -0.73837,1.36713 l 0.00613,0.02461 0.00864,0.02386 c 0.1899,0.52428 0.77487,0.89367 1.39012,0.69216 l 9.027969,-2.75481 9.223901,2.83862 c 0.626,0.20545 1.2114,-0.1793 1.395,-0.73244 0.2079,-0.626 -0.1718,-1.21713 -0.7279,-1.40319 l -0.0038,-0.00128 -9.583401,-2.91738999 z M 0.40247697,4.4711117 l 0.12225,0.2679 m -0.12225,-0.2679 c 0.12087,-0.05515 0.24756,-0.08801 0.37475,-0.09932 0.10661,-0.01419 0.21686,-0.01275 0.32792003,0.00584 0.44667,0.07473 0.7876799,0.40463 0.8889399,0.8216 L 7.246267,15.488142 h 13.90376 l 4.9526,-10.2664603 c 0.0621,-0.27642 0.232,-0.51856 0.4796,-0.66824 0.3188,-0.21601 0.7349,-0.24376 1.0887,-0.08233 0.3673,0.1676 0.5759,0.50226 0.6169,0.85446 l 0.1627,0.95293 c 0.0466,0.22 0.2043,1.36427 0.2043,3.06283 0,1.7122103 -0.1705,3.9646103 -0.7952,6.5018103 l -2e-4,7e-4 c -0.5968,2.3965 -1.6779,5.2831 -3.6435,8.1144 -1.9658,2.8315 -4.8117,5.6292 -8.8995,7.824 l -7e-4,3e-4 -0.0013,8e-4 -0.741101,0.4133 -0.0011,6e-4 c -0.3454,0.1975 -0.7254,0.1977 -1.0707,2e-4 l -0.0013,-7e-4 -0.7414,-0.4135 -0.0012,-7e-4 -7e-4,-4e-4 c -4.087799,-2.1947 -6.933679,-4.9924 -8.899459,-7.8239 -1.9640901,-2.8291 -3.04689003,-5.7158 -3.58918003,-8.1484 -0.62372,-2.5353 -0.79393,-4.8137 -0.79393,-6.4965103 0,-1.69849 0.15765,-2.84273 0.2043,-3.0628 l 0.11707,-0.68556 c -0.03754,-0.44209 0.20346999624,-0.85466 0.55734,-1.06781 l 0.02396,-0.01444 z m 0.12339,0.27041 0.0393,0.08612 M 4.543637,3.8062317 13.885926,0.95091171 c 0.0948,-0.02245 0.2144,-0.02193 0.308,0.00157 l 0.0023,5.8e-4 9.561401,2.91066999 c 0.2889,0.09853 0.4438,0.38262 0.3524,0.65792 -0.0971,0.29256 -0.3805,0.44855 -0.6541,0.3579 l -0.003,-0.001 -9.402101,-2.89348 -9.207039,2.80943 -0.00329,0.00108 c -0.27427,0.0908 -0.55561,-0.06611 -0.65305,-0.32766 -0.06936,-0.28834 0.07485,-0.56755 0.35499,-0.66129 z m -3.69267003,1.14992 c 0.04977,-0.00704 0.10242,-0.00677 0.15699003,0.00236 0.21825,0.03652 0.37802,0.19945 0.41815,0.39932 l 0.00799,0.03978 5.45156,10.6794303 h 14.36157 c 0.0183,0 0.0362,0.001 0.0539,0.0029 l 0.2065,0.0223 5.1586,-10.6934003 0.0072,-0.03913 c 0.0244,-0.13323 0.1027,-0.24682 0.2175,-0.31463 l 0.0091,-0.00538 0.0087,-0.00603 c 0.1414,-0.09785 0.3406,-0.11757 0.5177,-0.03675 0.1636,0.07466 0.2587,0.22209 0.2769,0.3913 l 9e-4,0.0091 0.1681,0.98408 0.0016,0.00726 c 0.0313,0.14038 0.1919,1.24508 0.1919,2.94267 0,1.6735103 -0.1667,3.8774103 -0.7779,6.3602103 -0.5836,2.3433 -1.6394,5.1604 -3.5558,7.9208 -1.9161,2.7599 -4.6936,5.493 -8.6949,7.6413 l -0.0013,6e-4 -0.752501,0.4197 -0.003,0.0018 -9e-4,4e-4 c -0.1642,0.094 -0.3215,0.094 -0.4857,0 l -10e-4,-5e-4 -0.7512,-0.4191 -0.0054,-0.0029 c -4.001399,-2.1483 -6.778869,-4.8814 -8.694959,-7.6413 -1.9158401,-2.7596 -2.9711,-5.5748 -3.49883003,-7.9438 l -7.1e-4,-0.0032 -7.8e-4,-0.0031 c -0.61099,-2.4823 -0.77763,-4.7136 -0.77763,-6.3589103 0,-1.69757 0.16059,-2.80227 0.19193,-2.94267 l 0.00162,-0.00726 0.1337,-0.78294 -0.0057,-0.04387 c -0.02643,-0.20367 0.08382,-0.41894 0.26727,-0.532 0.05938,-0.02639 0.12064,-0.04157 0.18142,-0.04651 l 0.00873,-7e-4 z m 0.31520003,2.17235 -0.04978,1.11325 c -0.01434,0.32054 -0.02372,0.67959 -0.02372,1.07158 0,1.5736103 0.13991,3.7380103 0.7280299,6.1000103 0.56014,2.2773 1.56865,4.9494 3.3895601,7.5932 l 8.5e-4,0.0012 c 1.55332,2.231 3.69782,4.462 6.693619,6.361 l 0.9096,0.5766 z m 25.82316,1.21804 -0.0473,-1.17771 -4.4549,9.2346103 v 0.0259 l -7.1926,13.5106 0.945,-0.6027 c 2.9572,-1.886 5.1065,-4.0877 6.6512,-6.3304 1.8213,-2.6441 2.8296,-5.3439 3.3897,-7.593 0.5882,-2.3621 0.7282,-4.5268 0.7282,-6.1005103 0,-0.34982 -0.0075,-0.6734 -0.0193,-0.96679 z M 2.3923369,15.271542 c -0.55871,-2.2436 -0.70332,-4.3082 -0.71043,-5.8375003 L 11.287726,28.250342 c -2.443299,-1.7095 -4.246599,-3.6451 -5.592829,-5.5785 -1.77282,-2.5741 -2.7558201,-5.1773 -3.3023501,-7.3995 z m 20.6837901,1.3048 v -0.0383 l 3.3418,-6.9274003 c -0.0173,1.5098003 -0.1715,3.5025003 -0.709,5.6609003 -0.547,2.1966 -1.5305,4.8276 -3.3032,7.4012 -1.3275,1.9273 -3.1176,3.8285 -5.5122,5.5169 z m -15.66256,0.5349 h 13.54936 l -6.914101,12.9983 z m 6.646059,11.724 -5.684199,-11.135 h 11.6071 z"
     stroke="#ffffff"
     stroke-width="0.392639"
     stroke-miterlimit="10"
     id="path6"
     style="stroke:#000000;stroke-opacity:1" />
</svg>
