<?xml version="1.0" encoding="UTF-8" standalone="no"?>
<svg
   width="35.442001"
   height="32.450199"
   viewBox="0 0 35.442001 32.450199"
   fill="none"
   version="1.1"
   id="svg58"
   sodipodi:docname="cosmostation.svg"
   inkscape:version="1.2.2 (b0a8486541, 2022-12-01)"
   xmlns:inkscape="http://www.inkscape.org/namespaces/inkscape"
   xmlns:sodipodi="http://sodipodi.sourceforge.net/DTD/sodipodi-0.dtd"
   xmlns="http://www.w3.org/2000/svg"
   xmlns:svg="http://www.w3.org/2000/svg">
  <defs
     id="defs62" />
  <sodipodi:namedview
     id="namedview60"
     pagecolor="#ffffff"
     bordercolor="#666666"
     borderopacity="1.0"
     inkscape:showpageshadow="2"
     inkscape:pageopacity="0.0"
     inkscape:pagecheckerboard="0"
     inkscape:deskcolor="#d1d1d1"
     showgrid="false"
     inkscape:zoom="7.2631579"
     inkscape:cx="96.789855"
     inkscape:cy="16.246377"
     inkscape:window-width="2560"
     inkscape:window-height="1371"
     inkscape:window-x="0"
     inkscape:window-y="1112"
     inkscape:window-maximized="1"
     inkscape:current-layer="svg58" />
  <path
     d="M 11.973,26.1202 5.25697,14.4879 c -0.16741,-0.29 -0.25551,-0.6189 -0.25551,-0.9538 0,-0.3348 0.0881,-0.6637 0.25551,-0.9537 L 11.973,0.95375 C 12.1404,0.66376 12.3812,0.42296 12.6712,0.25555 12.9612,0.08813 13.2901,-9.9991492e-6 13.625,0 h 13.4262 c 0.3349,-9.9991492e-6 0.6639,0.08813 0.9539,0.25555 0.29,0.16741 0.5308,0.40821 0.6982,0.6982 L 35.442,12.5917 32.1379,14.4993 25.9726,3.82634 H 14.7491 L 9.13445,13.5455 15.2997,24.224 Z"
     fill="#9c6cff"
     id="path2" />
  <path
     d="M 21.817,32.4502 H 8.36238 C 8.02753,32.4502 7.69852,32.362 7.40853,32.1946 7.11854,32.0272 6.87776,31.7864 6.71033,31.4964 L 0,19.8755 3.29841,17.968 9.46369,28.6465 H 20.6816 L 26.2905,18.9217 20.1309,8.24883 23.4293,6.34131 30.1453,17.968 c 0.1674,0.2899 0.2555,0.6189 0.2555,0.9537 0,0.3348 -0.0881,0.6638 -0.2555,0.9538 l -6.716,11.6323 c -0.1646,0.2828 -0.3996,0.5183 -0.6821,0.6834 -0.2825,0.1651 -0.603,0.2544 -0.9302,0.259 z"
     fill="#05d2dd"
     id="path4" />
</svg>
