<?xml version="1.0" encoding="UTF-8" standalone="no"?>
<svg
   viewBox="0 0 51.980049 48.990086"
   version="1.1"
   id="svg38"
   sodipodi:docname="terra.svg"
   width="51.980049"
   height="48.990086"
   inkscape:version="1.2.2 (b0a8486541, 2022-12-01)"
   xmlns:inkscape="http://www.inkscape.org/namespaces/inkscape"
   xmlns:sodipodi="http://sodipodi.sourceforge.net/DTD/sodipodi-0.dtd"
   xmlns:xlink="http://www.w3.org/1999/xlink"
   xmlns="http://www.w3.org/2000/svg"
   xmlns:svg="http://www.w3.org/2000/svg">
  <sodipodi:namedview
     id="namedview40"
     pagecolor="#ffffff"
     bordercolor="#666666"
     borderopacity="1.0"
     inkscape:showpageshadow="2"
     inkscape:pageopacity="0.0"
     inkscape:pagecheckerboard="0"
     inkscape:deskcolor="#d1d1d1"
     showgrid="false"
     inkscape:zoom="6.8401487"
     inkscape:cx="72.513043"
     inkscape:cy="24.56087"
     inkscape:window-width="2560"
     inkscape:window-height="1371"
     inkscape:window-x="0"
     inkscape:window-y="1112"
     inkscape:window-maximized="1"
     inkscape:current-layer="svg38" />
  <defs
     id="defs22">
    <linearGradient
       id="a"
       x1="35.549999"
       x2="35.549999"
       y1="48.970001"
       y2="24.51"
       gradientUnits="userSpaceOnUse">
      <stop
         offset="0"
         stop-color="#4366c2"
         id="stop2" />
      <stop
         offset=".15"
         stop-color="#3458b8"
         id="stop4" />
      <stop
         offset=".4"
         stop-color="#2348ac"
         id="stop6" />
      <stop
         offset=".67"
         stop-color="#193fa5"
         id="stop8" />
      <stop
         offset="1"
         stop-color="#163ca3"
         id="stop10" />
    </linearGradient>
    <linearGradient
       xlink:href="#a"
       id="c"
       x1="28.73"
       x2="28.73"
       y1="22.860001"
       y2="0"
       gradientTransform="translate(-0.01998802,-0.01061657)" />
    <linearGradient
       id="b"
       x1="2.6800001"
       x2="19.280001"
       y1="8.0200005"
       y2="8.0200005"
       gradientUnits="userSpaceOnUse">
      <stop
         offset="0"
         stop-color="#58c66b"
         id="stop14" />
      <stop
         offset="1"
         stop-color="#5491f6"
         id="stop16" />
    </linearGradient>
    <linearGradient
       xlink:href="#b"
       id="d"
       x1="0"
       x2="16.02"
       y1="32.68"
       y2="32.68"
       gradientTransform="translate(-0.01998802,-0.01061657)" />
    <linearGradient
       xlink:href="#b"
       id="e"
       x1="14.03"
       x2="52"
       y1="20.120001"
       y2="20.120001"
       gradientTransform="translate(-0.01998802,-0.01061657)" />
    <linearGradient
       xlink:href="#b"
       id="f"
       x1="33.830002"
       x2="48.689999"
       y1="43.419998"
       y2="43.419998"
       gradientTransform="translate(-0.01998802,-0.01061657)" />
    <linearGradient
       inkscape:collect="always"
       xlink:href="#a"
       id="linearGradient370"
       gradientUnits="userSpaceOnUse"
       x1="35.549999"
       y1="48.970001"
       x2="35.549999"
       y2="24.51"
       gradientTransform="translate(-0.01998802,-0.01061657)" />
    <linearGradient
       inkscape:collect="always"
       xlink:href="#b"
       id="linearGradient372"
       gradientUnits="userSpaceOnUse"
       x1="2.6800001"
       y1="8.0200005"
       x2="19.280001"
       y2="8.0200005"
       gradientTransform="translate(-0.01998802,-0.01061657)" />
  </defs>
  <path
     fill="url(#a)"
     d="m 22.340012,39.809383 c 1.43,5.28 6.54,9.31 9.12,9.15 0.09,0 9.79,-1.82 15.1,-10.71 4.13,-6.92 2.73,-13.6 -2.89,-13.75 -2,0.15 -24,5.25 -21.33,15.31"
     id="path24"
     style="fill:url(#linearGradient370)" />
  <path
     fill="url(#c)"
     d="m 43.140012,5.8893834 a 24.63,24.63 0 0 0 -26,-3.76 14.3,14.3 0 0 0 -1.57,0.77 c -0.34,0.18 -0.69,0.37 -1,0.57 h 0.09 a 11.17,11.17 0 0 0 -2.63,2.52 c -7.05,9.3299996 16.65,16.1499996 29.34,16.1699996 5.84,4.2 7.48,-11.82 1.77,-16.2699996 z"
     id="path26"
     style="fill:url(#c)" />
  <path
     fill="url(#b)"
     d="m 18.580012,6.0793834 c -3.26,4.9099996 -14.12,8.3699996 -15.91,7.8299996 l 0.22,-0.45 a 26.58,26.58 0 0 1 2.09,-3.4699996 26.57,26.57 0 0 1 5.65,-5.6 23.91,23.91 0 0 1 2.07,-1.4 7.6,7.6 0 0 1 3.59,-1 c 4.84,0.09 2.31,4 2.29,4"
     id="path28"
     style="fill:url(#linearGradient372)" />
  <path
     fill="url(#d)"
     d="m 15.900012,40.779383 c 0.24,1.54 0,7.63 -0.32,8.15 -0.27,0 -0.83,0.05 -2.47,-0.87 a 24,24 0 0 1 -2.48,-1.62 26,26 0 0 1 -3,-2.6 25.13,25.13 0 0 1 -2.6,-3 25.44,25.44 0 0 1 -3.69,-7.15 25.27,25.27 0 0 1 -1.00000002,-4 26.42,26.42 0 0 1 0,-8.45 25.81,25.81 0 0 1 1.00000002,-4 q 0.12,-0.39 0.27,-0.78 c 1.87,2.5 4,4.76 5.89,7.28 1.89,2.52 4.17,6.32 4.66,7.16 3,5.19 3.54,8.4 3.77,9.94"
     id="path30"
     style="fill:url(#d)" />
  <path
     fill="url(#e)"
     d="m 51.980012,25.419383 a 26.06,26.06 0 0 1 -1.81,9.57 c -3.06,3.29 -23.71,-4.82 -23.91,-4.91 -2.83,-1.24 -11.42,-5 -12.2,-10.94 -1.08,-8.53 16.15,-14.4699996 23.74,-14.6999996 0.91,0 3.68,0 5.29,1.36 a 26,26 0 0 1 8.89,19.6199996"
     id="path32"
     style="fill:url(#e)" />
  <path
     fill="url(#f)"
     d="m 37.980012,48.519383 c -2.25,1.06 -4.73,0.29 -4.08,-1.91 1.23,-4.21 12,-8.54 14.41,-8.77 0.29,0 0.42,0.17 0.29,0.4 a 26.34,26.34 0 0 1 -10.62,10.28"
     id="path34"
     style="fill:url(#f)" />
</svg>
