<?xml version="1.0" encoding="UTF-8" standalone="no"?>
<svg
   version="1.0"
   width="996.000000pt"
   height="996.000000pt"
   viewBox="0 0 996.000000 996.000000"
   preserveAspectRatio="xMidYMid meet"
   id="svg22"
   sodipodi:docname="nownodes-dark.svg"
   inkscape:version="1.2.2 (b0a8486541, 2022-12-01)"
   xmlns:inkscape="http://www.inkscape.org/namespaces/inkscape"
   xmlns:sodipodi="http://sodipodi.sourceforge.net/DTD/sodipodi-0.dtd"
   xmlns="http://www.w3.org/2000/svg"
   xmlns:svg="http://www.w3.org/2000/svg">
  <defs
     id="defs26" />
  <sodipodi:namedview
     id="namedview24"
     pagecolor="#ffffff"
     bordercolor="#666666"
     borderopacity="1.0"
     inkscape:showpageshadow="2"
     inkscape:pageopacity="0.0"
     inkscape:pagecheckerboard="0"
     inkscape:deskcolor="#d1d1d1"
     inkscape:document-units="pt"
     showgrid="false"
     inkscape:zoom="0.75301205"
     inkscape:cx="442.224"
     inkscape:cy="664"
     inkscape:window-width="2560"
     inkscape:window-height="1371"
     inkscape:window-x="0"
     inkscape:window-y="1112"
     inkscape:window-maximized="1"
     inkscape:current-layer="svg22" />
  <metadata
     id="metadata2">
Created by potrace 1.11, written by Peter Selinger 2001-2013
</metadata>
  <g
     transform="translate(0.000000,996.000000) scale(0.100000,-0.100000)"
     fill="#000000"
     stroke="none"
     id="g20"
     style="fill:#ffffff;fill-opacity:1">
    <path
       d="M4258 8225 c-2 -2 -28 -7 -58 -10 -61 -6 -102 -12 -140 -21 -14 -4 -34 -8 -45 -10 -83 -12 -368 -128 -386 -156 -3 -5 -9 -9 -13 -8 -4 0 -43 -24 -87 -56 -96 -67 -237 -205 -302 -294 -26 -36 -52 -71 -57 -78 -23 -27 -94 -168 -125 -247 -32 -80 -70 -223 -79 -295 -15 -115 -18 -163 -18 -244 0 -116 15 -294 28 -338 3 -10 7 -30 10 -45 14 -81 108 -334 136 -368 7 -9 75 -110 103 -154 32 -50 232 -235 312 -288 107 -72 257 -145 343 -168 3 -1 12 -4 20 -7 42 -15 122 -35 180 -44 19 -3 41 -7 49 -10 49 -17 371 -24 481 -11 30 4 75 9 99 12 24 3 72 12 105 21 34 9 68 18 76 20 17 4 96 31 120 41 8 3 17 7 20 7 15 3 172 84 215 112 129 82 302 244 394 371 94 129 188 341 217 488 4 22 8 42 9 45 28 104 35 421 11 555 -9 50 -17 98 -21 126 -2 14 -9 38 -14 52 -6 15 -8 27 -5 27 4 0 1 7 -6 15 -7 8 -9 15 -5 15 4 0 3 6 -2 13 -5 6 -16 32 -23 57 -19 63 -102 222 -154 295 -104 145 -293 316 -436 393 -63 35 -106 56 -115 58 -5 2 -39 15 -74 29 -60 25 -220 70 -286 80 -16 3 -46 8 -65 11 -42 6 -406 15 -412 9z m290 -600 c91 -11 292 -85 292 -107 0 -4 6 -8 13 -8 33 0 179 -144 239 -236 24 -36 43 -68 44 -72 0 -4 8 -25 18 -47 44 -102 60 -196 60 -360 1 -153 -10 -225 -45 -325 -55 -152 -139 -275 -252 -365 -90 -72 -240 -128 -381 -141 -82 -8 -199 -8 -238 0 -16 3 -38 8 -50 10 -205 39 -408 194 -523 399 -30 54 -72 162 -80 204 -2 15 -9 50 -14 78 -9 47 -7 272 3 325 46 247 194 454 406 567 30 17 73 35 95 42 22 7 47 15 55 18 8 3 26 7 40 9 14 2 48 7 75 12 53 8 165 7 243 -3z"
       id="path4"
       style="fill:#ffffff;fill-opacity:1" />
    <path
       d="M45 8180 l-30 -5 1 -1370 c1 -753 2 -1376 3 -1382 1 -10 67 -13 296 -13 l295 0 0 830 c0 830 0 830 20 810 11 -11 20 -22 20 -24 0 -3 83 -109 185 -238 102 -128 207 -260 233 -293 26 -33 51 -65 57 -72 5 -7 15 -18 20 -25 46 -58 213 -270 234 -297 14 -18 38 -48 53 -65 15 -17 28 -34 28 -38 0 -4 7 -14 16 -22 8 -9 44 -53 80 -98 104 -133 108 -139 183 -233 39 -49 77 -97 84 -105 7 -8 32 -41 57 -72 l45 -58 252 0 253 0 0 28 c1 36 1 2690 0 2722 l0 25 -277 -2 c-153 -1 -287 -2 -298 -2 -20 -1 -20 -8 -19 -833 l1 -832 -29 35 c-16 19 -49 59 -72 89 -67 87 -190 244 -201 256 -5 6 -21 26 -35 44 -14 18 -63 81 -110 140 -47 59 -96 122 -110 140 -14 18 -63 81 -109 139 -118 150 -133 169 -183 231 -24 30 -64 82 -88 115 -25 33 -50 65 -56 70 -6 6 -26 30 -45 55 -18 25 -37 47 -41 48 -5 2 -8 10 -8 17 0 7 -3 15 -8 17 -6 3 -75 88 -188 232 l-31 39 -224 1 c-123 1 -237 -1 -254 -4z"
       id="path6"
       style="fill:#ffffff;fill-opacity:1" />
    <path
       d="M6009 8182 l-27 -3 30 -97 c16 -53 40 -133 53 -177 13 -44 37 -127 54 -185 17 -58 40 -134 50 -170 26 -88 73 -243 111 -370 18 -58 34 -112 36 -120 12 -52 44 -162 48 -169 3 -5 12 -33 20 -62 18 -66 109 -378 139 -474 12 -38 22 -73 23 -77 1 -5 3 -10 4 -13 1 -3 3 -8 4 -12 2 -5 8 -28 16 -53 7 -25 14 -50 16 -56 1 -5 20 -73 43 -150 23 -76 52 -175 65 -219 13 -44 38 -125 54 -180 17 -55 36 -119 43 -142 l12 -43 303 0 304 0 6 28 c4 15 9 32 13 37 3 6 6 15 7 20 1 6 12 42 25 80 13 39 24 72 24 75 1 3 11 37 23 75 13 39 22 72 21 75 -2 3 4 16 11 30 8 14 15 31 16 38 1 7 21 68 43 137 23 68 41 131 41 140 0 8 4 15 8 15 5 0 9 6 9 13 0 15 50 180 68 227 12 29 67 203 70 220 0 3 31 97 67 210 36 113 76 238 89 278 13 39 26 69 30 65 7 -8 164 -485 161 -490 -1 -2 6 -19 14 -40 9 -20 17 -44 19 -52 2 -12 96 -303 141 -441 3 -8 5 -16 5 -17 0 -2 7 -22 15 -45 9 -24 17 -47 18 -53 2 -5 6 -17 9 -25 3 -8 42 -130 87 -270 45 -140 87 -271 94 -290 l14 -35 304 -3 c240 -2 305 0 305 10 1 7 15 63 33 123 18 61 33 115 34 120 2 6 5 17 8 25 3 8 16 53 28 100 12 47 25 94 28 105 3 11 7 22 7 25 1 3 4 12 8 20 4 11 97 342 121 435 1 6 8 30 15 55 8 25 14 50 16 55 1 6 4 17 7 25 3 8 20 67 38 130 17 63 56 202 86 308 66 233 158 566 169 607 12 44 12 45 15 48 1 1 3 9 5 17 2 8 11 40 19 70 9 30 24 87 35 125 11 39 34 120 51 180 18 61 33 117 35 125 3 8 7 25 11 38 5 19 3 22 -22 23 -34 1 -541 1 -565 0 -15 -1 -24 -23 -50 -121 -5 -19 -28 -102 -50 -185 -23 -82 -47 -172 -54 -200 -7 -27 -21 -77 -30 -110 -9 -33 -18 -69 -21 -79 -2 -10 -8 -33 -14 -50 -5 -17 -23 -83 -40 -146 -17 -63 -44 -164 -61 -225 -16 -60 -31 -117 -33 -125 -2 -8 -11 -40 -20 -71 -9 -31 -19 -65 -21 -75 -2 -11 -20 -77 -40 -149 -20 -71 -38 -141 -41 -154 -12 -56 -21 -50 -44 31 -13 46 -25 88 -27 93 -3 14 -114 377 -121 395 -3 8 -6 20 -7 25 -2 6 -12 37 -22 70 -11 33 -26 80 -33 105 -7 25 -18 61 -25 80 -7 19 -13 38 -14 42 -1 4 -3 13 -6 20 -2 7 -15 51 -29 98 -13 47 -50 168 -81 270 -31 102 -58 190 -60 195 -1 6 -5 17 -8 25 -13 34 -67 217 -67 228 0 7 -10 12 -22 13 -28 1 -599 1 -615 0 -6 -1 -17 -25 -24 -53 -6 -29 -18 -68 -26 -85 -7 -18 -13 -34 -12 -35 1 -2 -5 -23 -12 -48 -7 -25 -13 -49 -15 -55 -1 -5 -39 -131 -84 -280 -45 -148 -83 -279 -86 -291 -2 -12 -10 -40 -19 -63 -8 -23 -14 -42 -14 -44 0 -1 -2 -9 -5 -17 -2 -8 -23 -80 -46 -160 -23 -80 -50 -172 -60 -205 -10 -33 -30 -100 -45 -150 -59 -199 -73 -240 -80 -238 -5 1 -10 8 -11 15 -3 20 -30 125 -53 208 -11 41 -34 127 -51 190 -18 63 -33 124 -35 135 -2 11 -4 20 -5 20 -1 0 -3 7 -5 15 -2 8 -11 40 -20 70 -8 30 -17 64 -19 75 -4 19 -23 88 -90 340 -15 55 -29 107 -31 115 -2 8 -20 76 -40 150 -20 74 -38 143 -41 153 -6 25 -11 43 -34 127 -12 41 -22 80 -24 87 -1 7 -5 16 -9 19 -7 7 -635 12 -688 6z"
       id="path8"
       style="fill:#ffffff;fill-opacity:1" />
    <path
       d="M26 4311 c-2 -3 -4 -576 -4 -1274 l0 -1268 146 3 146 3 0 997 c0 906 1 996 16 980 8 -9 46 -57 85 -107 38 -49 72 -92 75 -95 3 -3 28 -34 55 -70 28 -35 58 -74 68 -85 10 -11 37 -45 60 -75 22 -30 46 -59 52 -65 6 -5 22 -26 35 -45 13 -19 27 -37 31 -40 4 -3 24 -28 45 -56 22 -28 53 -69 71 -90 18 -21 89 -111 159 -199 69 -88 130 -161 135 -163 5 -2 9 -8 9 -13 0 -8 31 -47 68 -85 6 -7 12 -15 12 -19 0 -4 19 -30 43 -58 23 -28 45 -56 50 -62 4 -5 17 -21 28 -35 12 -14 33 -41 48 -60 14 -19 31 -40 36 -46 6 -6 24 -28 40 -49 60 -77 95 -121 119 -150 14 -16 57 -70 96 -120 39 -49 76 -97 83 -105 7 -8 25 -32 41 -52 l28 -38 124 0 124 0 0 73 c1 75 1 2263 0 2399 l0 76 -145 0 -145 0 0 -999 c0 -659 -3 -999 -10 -999 -5 0 -10 5 -10 11 0 6 -16 27 -35 47 -19 20 -35 40 -35 44 0 4 -11 20 -25 35 -14 16 -81 100 -151 188 -69 88 -131 167 -138 175 -7 9 -30 38 -52 66 -21 27 -45 56 -52 64 -10 13 -89 112 -260 329 -15 19 -66 85 -114 145 -48 61 -91 116 -96 121 -4 6 -28 35 -52 66 -25 30 -56 70 -70 89 -14 18 -32 41 -40 50 -8 10 -27 33 -41 51 -51 65 -240 304 -253 320 -7 8 -45 56 -84 106 l-72 91 -120 0 c-66 0 -122 -3 -124 -7z"
       id="path10"
       style="fill:#ffffff;fill-opacity:1" />
    <path
       d="M6056 3837 c0 -265 -2 -488 -4 -494 -3 -10 -11 -8 -31 5 -86 60 -236 96 -391 96 -357 -2 -652 -176 -801 -473 -21 -43 -39 -87 -39 -98 0 -11 -3 -23 -7 -27 -4 -3 -8 -12 -9 -19 -1 -7 -5 -25 -8 -42 -16 -78 -19 -107 -20 -195 -1 -85 1 -117 18 -225 3 -16 15 -61 27 -100 12 -38 20 -72 19 -74 -1 -2 2 -7 7 -10 4 -3 16 -22 25 -41 76 -156 210 -277 378 -344 25 -10 53 -20 63 -22 9 -2 27 -7 40 -10 79 -20 253 -27 327 -13 136 26 246 80 345 171 30 27 56 46 56 42 1 -5 2 -49 3 -99 l1 -90 146 -3 145 -3 -1 1273 0 1273 -145 2 -145 2 1 -482z m-244 -687 c40 -11 111 -38 158 -61 l85 -42 0 -409 0 -409 -51 -48 c-28 -26 -57 -51 -65 -54 -17 -8 -52 -30 -59 -37 -7 -7 -82 -41 -100 -46 -8 -2 -35 -8 -60 -15 -25 -6 -76 -12 -114 -13 -267 -10 -467 138 -532 394 -29 115 -24 267 14 387 50 157 212 302 395 353 85 24 234 24 329 0z"
       id="path12"
       style="fill:#ffffff;fill-opacity:1" />
    <path
       d="M3389 3429 c-118 -21 -121 -22 -197 -52 -143 -58 -288 -178 -371 -307 -43 -67 -97 -188 -106 -240 -3 -18 -8 -36 -10 -40 -7 -12 -18 -147 -17 -220 1 -72 4 -98 18 -184 12 -78 90 -256 133 -305 12 -13 21 -27 21 -30 1 -21 191 -191 220 -197 3 0 39 -17 80 -36 83 -39 166 -64 250 -75 69 -9 228 -9 299 0 213 27 409 135 536 295 25 31 50 63 56 70 22 26 88 179 103 237 17 69 29 167 29 240 0 73 -13 192 -22 218 -5 12 -9 27 -10 32 -4 29 -13 54 -51 140 -57 128 -183 267 -315 347 -178 108 -415 147 -646 107z m318 -275 c147 -34 277 -138 352 -284 23 -44 40 -80 37 -80 -3 0 -1 -12 5 -27 28 -73 30 -211 6 -333 -35 -173 -179 -335 -351 -393 -44 -15 -157 -33 -196 -31 -137 8 -230 33 -308 85 -24 16 -47 29 -53 29 -5 0 -9 3 -9 8 -1 4 -23 32 -51 62 -57 62 -102 147 -124 237 -18 69 -25 200 -13 253 4 19 9 50 13 67 31 180 195 351 385 404 77 22 221 23 307 3z"
       id="path14"
       style="fill:#ffffff;fill-opacity:1" />
    <path
       d="M7527 3444 c-1 -1 -27 -5 -57 -8 -248 -27 -447 -150 -576 -356 -22 -36 -46 -81 -54 -100 -7 -19 -17 -39 -21 -45 -3 -5 -10 -26 -14 -45 -4 -19 -10 -39 -13 -45 -4 -5 -8 -19 -9 -30 -2 -11 -8 -45 -13 -75 -9 -57 -6 -282 4 -335 15 -74 20 -93 30 -120 5 -11 15 -38 23 -60 39 -106 137 -233 253 -328 83 -68 265 -136 413 -155 71 -9 263 -7 307 3 14 3 42 8 63 10 106 14 252 83 366 174 l24 19 -43 108 c-24 60 -44 110 -46 112 -3 4 -54 -28 -72 -45 -21 -20 -134 -71 -192 -87 -135 -36 -308 -38 -435 -5 -47 13 -139 55 -169 78 -115 88 -206 248 -202 356 l1 30 610 2 c336 1 618 2 627 2 12 1 19 14 24 49 10 66 12 232 3 262 -5 14 -10 41 -12 60 -9 72 -54 178 -109 258 -37 53 -152 169 -176 176 -10 4 -27 14 -38 24 -46 42 -195 96 -302 108 -47 6 -191 11 -195 8z m225 -295 c177 -53 281 -180 304 -369 l6 -45 -496 0 -497 0 6 30 c21 132 98 250 210 323 22 15 42 27 45 28 3 0 13 4 23 8 106 47 289 59 399 25z"
       id="path16"
       style="fill:#ffffff;fill-opacity:1" />
    <path
       d="M9217 3444 c-1 -1 -29 -4 -62 -8 -66 -7 -134 -26 -192 -52 -81 -37 -184 -133 -205 -191 -7 -18 -15 -33 -19 -33 -4 0 -10 -17 -14 -37 -4 -21 -9 -49 -12 -63 -6 -26 -6 -144 0 -170 33 -145 126 -260 267 -328 63 -30 361 -132 387 -132 7 0 13 -4 13 -10 0 -5 8 -10 18 -10 23 0 128 -68 162 -104 20 -22 24 -37 25 -89 0 -82 -2 -87 -55 -146 -24 -27 -78 -60 -110 -69 -8 -2 -55 -5 -105 -7 -67 -3 -107 1 -155 15 -104 29 -140 43 -140 52 0 4 -7 8 -16 8 -19 0 -115 63 -146 96 -13 13 -26 24 -30 24 -3 0 -30 -30 -60 -67 -29 -38 -58 -74 -65 -81 -46 -48 -38 -76 36 -134 93 -72 265 -145 386 -163 111 -17 286 -8 386 19 189 53 314 156 364 301 26 76 28 253 2 304 -9 19 -17 38 -17 43 0 15 -42 69 -93 119 -69 69 -174 118 -413 193 -206 64 -310 132 -331 215 -24 94 17 170 120 224 36 19 57 22 147 21 89 0 118 -5 185 -28 44 -16 82 -32 85 -36 3 -4 19 -14 35 -23 17 -8 43 -26 59 -40 22 -19 32 -23 41 -14 20 21 125 197 125 209 -1 23 -155 118 -231 143 -13 4 -26 8 -29 9 -13 5 -120 27 -160 32 -44 6 -178 12 -183 8z"
       id="path18"
       style="fill:#ffffff;fill-opacity:1" />
  </g>
</svg>
