<svg width="64" height="64" viewBox="0 0 64 64" fill="none" xmlns="http://www.w3.org/2000/svg">
  <path d="M0 16C0 7.16344 7.16344 0 16 0H48C56.8366 0 64 7.16344 64 16V48C64 56.8366 56.8366 64 48 64H16C7.16344 64 0 56.8366 0 48V16Z" fill="#2417F2" />
  <path d="M40.6536 8.22689C47.5066 9.40414 52.8035 15.127 53.3294 22.1813C53.341 22.3853 53.3318 22.5913 53.3029 22.7928C53.3128 22.8966 53.3216 23.0007 53.3294 23.1051C53.425 24.7889 52.11 26.6098 49.8854 24.9345C46.888 22.6763 42.4729 21.1123 38.0629 21.1123C35.7797 21.1123 34.6296 19.7039 34.6296 17.7996V13.2504H25.2094C25.188 13.2508 25.1666 13.2515 25.1452 13.2522C25.1238 13.2529 25.1024 13.2536 25.081 13.254C19.2827 13.3865 14.5911 17.9961 14.3348 23.7628C14.4412 26.5552 15.5858 29.0796 17.396 30.9622C17.6721 31.2497 17.9654 31.5208 18.2715 31.7777C19.1077 32.4769 20.0488 33.0562 21.0683 33.4851C22.3077 34.0066 23.6604 34.3106 25.081 34.3427H26.5393C27.7352 34.3427 28.7041 35.3123 28.7041 36.5081C28.7041 36.6666 28.687 36.8212 28.6547 36.97C28.687 37.1188 28.7041 37.2734 28.7041 37.4319C28.7041 38.6277 27.7352 39.5966 26.5393 39.5966H25.081C25.0211 39.5966 24.9619 39.5924 24.9027 39.5881C23.3387 39.5439 21.8339 39.2656 20.4205 38.7868C19.1262 38.3495 17.9154 37.7359 16.8017 36.9881C16.7482 36.9521 16.6944 36.9166 16.6405 36.881C16.5098 36.7946 16.3785 36.7079 16.2523 36.615C12.4608 33.8231 10 29.3296 10 24.2602C10 24.12 10.0035 23.9806 10.0082 23.8414C10.0055 23.7598 10.0035 23.6781 10.0022 23.5962C10.0007 23.5647 10 23.533 10 23.5011C10 23.4874 10.0002 23.4737 10.0005 23.46C10.0002 23.4188 10 23.3776 10 23.3364C10 23.158 10.0057 22.9811 10.0121 22.8041C10.0043 22.7299 10 22.6543 10 22.5773C10 22.4788 10.0086 22.3825 10.0214 22.2869C10.0251 22.2704 10.0291 22.2539 10.0332 22.2374C10.0377 22.2188 10.0422 22.2001 10.0464 22.1813C10.5722 15.127 15.8691 9.40414 22.7222 8.22689C23.532 8.08705 24.3625 8.00999 25.2108 8.00357C25.2289 8.00326 25.2469 8.00256 25.2648 8.00186C25.2886 8.00093 25.3124 8 25.3364 8C25.3604 8 25.3842 8.00093 25.408 8.00186C25.426 8.00256 25.4439 8.00326 25.462 8.00357H26.0057C26.0237 8.00326 26.0417 8.00256 26.0596 8.00186C26.0834 8.00093 26.1072 8 26.1312 8C26.1554 8 26.1796 8.00094 26.2037 8.00188C26.2215 8.00257 26.2392 8.00326 26.2568 8.00357H37.1182C37.1362 8.00326 37.154 8.00257 37.1719 8.00187C37.1959 8.00094 37.22 8 37.2445 8C37.2685 8 37.2923 8.00093 37.3161 8.00186C37.3341 8.00256 37.352 8.00326 37.3701 8.00357H37.9138C37.9318 8.00326 37.9498 8.00256 37.9677 8.00186C37.9915 8.00093 38.0153 8 38.0393 8C38.0634 8 38.0871 8.00093 38.111 8.00186C38.1289 8.00256 38.1468 8.00326 38.1649 8.00357C39.0132 8.00999 39.8437 8.08705 40.6536 8.22689Z" fill="white" />
  <path d="M10.1716 41.8197C10.6975 48.8739 15.9944 54.5968 22.8474 55.7741C23.6573 55.9139 24.4878 55.991 25.3361 55.9974C25.3542 55.9977 25.3721 55.9984 25.39 55.9991C25.4138 56 25.4377 56.0009 25.4617 56.0009C25.4856 56.0009 25.5094 56 25.5332 55.9991C25.5432 55.9987 25.5534 55.9983 25.5635 55.998C25.5714 55.9977 25.5793 55.9975 25.5872 55.9974H26.1309C26.1488 55.9977 26.1667 55.9984 26.1844 55.9991C26.2082 56 26.2325 56.0009 26.2565 56.0009C26.281 56.0009 26.3051 56 26.3291 55.9991C26.3469 55.9984 26.3649 55.9977 26.3828 55.9974H37.2442C37.2618 55.9977 37.2795 55.9984 37.2973 55.9991C37.3214 56 37.3456 56.0009 37.3698 56.0009C37.3799 56.0009 37.39 56.0008 37.4001 56.0005C37.4139 56.0002 37.4277 55.9996 37.4414 55.9991C37.4593 55.9984 37.4773 55.9977 37.4953 55.9974H38.039C38.0616 55.9978 38.0839 55.9988 38.1062 55.9996C38.1256 56.0003 38.145 56.0009 38.1646 56.0009C38.1887 56.0009 38.2128 56 38.2368 55.9991C38.2546 55.9984 38.2726 55.9977 38.2902 55.9974C39.1385 55.991 39.969 55.9139 40.7788 55.7741C47.6319 54.5968 52.9288 48.8739 53.4546 41.8197C53.4588 41.8008 53.4633 41.7822 53.4678 41.7636C53.4719 41.7471 53.4759 41.7306 53.4796 41.7141C53.4924 41.6185 53.501 41.5221 53.501 41.4237C53.501 41.3466 53.4967 41.271 53.4889 41.1968C53.4953 41.0199 53.501 40.8429 53.501 40.6645C53.501 40.6233 53.5008 40.5821 53.5005 40.5409C53.5008 40.5273 53.501 40.5136 53.501 40.4999C53.501 40.4679 53.5003 40.4362 53.4988 40.4047C53.4975 40.3228 53.4955 40.2411 53.4928 40.1596C53.4975 40.0204 53.501 39.881 53.501 39.7407C53.501 34.6714 51.0402 30.1778 47.2487 27.386C47.1224 27.293 46.9915 27.2065 46.8607 27.1201C46.8068 27.0845 46.7529 27.0489 46.6993 27.0128C45.5856 26.2651 44.3748 25.6515 43.0805 25.2141C41.6671 24.7361 40.1624 24.4571 38.5984 24.4129C38.5392 24.4086 38.4799 24.4043 38.42 24.4043H36.9617C35.7658 24.4043 34.7969 25.3732 34.7969 26.569C34.7969 26.7275 34.814 26.8821 34.8463 27.0309C34.814 27.1798 34.7969 27.3343 34.7969 27.4928C34.7969 28.6887 35.7658 29.6583 36.9617 29.6583H38.42C39.8406 29.6904 41.1933 29.9943 42.4327 30.5159C43.4522 30.9447 44.3933 31.524 45.2295 32.2233C45.5356 32.4801 45.8289 32.7512 46.105 33.0388C47.9152 34.9214 49.0598 37.4458 49.1662 40.2382C48.9099 46.0049 44.2183 50.6145 38.42 50.747C38.3986 50.7473 38.3772 50.748 38.3558 50.7487C38.3344 50.7495 38.313 50.7502 38.2916 50.7505H28.8714V46.2013C28.8714 44.297 27.7213 42.8886 25.4381 42.8886C21.0281 42.8886 16.613 41.3246 13.6156 39.0665C11.391 37.3912 10.076 39.212 10.1716 40.8958C10.1794 41.0002 10.1882 41.1043 10.1981 41.2081C10.1692 41.4097 10.16 41.6157 10.1716 41.8197Z" fill="white" />
</svg>