<?xml version="1.0" encoding="UTF-8" standalone="no"?>
<!-- Created with Inkscape (http://www.inkscape.org/) -->

<svg
   width="18.045273mm"
   height="10.607146mm"
   viewBox="0 0 18.045273 10.607146"
   version="1.1"
   id="svg1736"
   inkscape:version="1.2.2 (b0a8486541, 2022-12-01)"
   sodipodi:docname="changenow.svg"
   xmlns:inkscape="http://www.inkscape.org/namespaces/inkscape"
   xmlns:sodipodi="http://sodipodi.sourceforge.net/DTD/sodipodi-0.dtd"
   xmlns="http://www.w3.org/2000/svg"
   xmlns:svg="http://www.w3.org/2000/svg">
  <sodipodi:namedview
     id="namedview1738"
     pagecolor="#ffffff"
     bordercolor="#666666"
     borderopacity="1.0"
     inkscape:showpageshadow="2"
     inkscape:pageopacity="0.0"
     inkscape:pagecheckerboard="0"
     inkscape:deskcolor="#d1d1d1"
     inkscape:document-units="mm"
     showgrid="false"
     inkscape:zoom="0.89085297"
     inkscape:cx="-16.837795"
     inkscape:cy="350.22614"
     inkscape:window-width="2560"
     inkscape:window-height="1371"
     inkscape:window-x="0"
     inkscape:window-y="1112"
     inkscape:window-maximized="1"
     inkscape:current-layer="layer1" />
  <defs
     id="defs1733" />
  <g
     inkscape:label="Ebene 1"
     inkscape:groupmode="layer"
     id="layer1"
     transform="translate(-51.997466,-55.830933)">
    <path
       d="m 53.89091,57.895212 a 0.73289582,0.73289582 0 0 0 -0.24607,-0.228335 0.69611874,0.69611874 0 0 0 -0.36062,-0.0934 0.89958332,0.89958332 0 0 0 -0.38127,0.06747 0.83555416,0.83555416 0 0 0 -0.46937,0.51091 1.1702521,1.1702521 0 0 0 -0.0622,0.386292 c 0,0.138642 0.0206,0.267229 0.0622,0.386556 a 0.83449582,0.83449582 0 0 0 0.46911,0.511175 0.89693749,0.89693749 0 0 0 0.381,0.06747 c 0.13494,0 0.25506,-0.03122 0.36063,-0.0934 0.10556,-0.06218 0.18758,-0.138112 0.24632,-0.228335 l 0.2802,0.212725 c -0.12118,0.141817 -0.25771,0.246327 -0.40984,0.313796 A 1.2292542,1.2292542 0 0 1 53.28395,59.8145 c -0.19711,0.0034 -0.37518,-0.02672 -0.53446,-0.09075 a 1.1821583,1.1821583 0 0 1 -0.40692,-0.267229 1.1408833,1.1408833 0 0 1 -0.25665,-0.407194 1.4470062,1.4470062 0 0 1 -0.0884,-0.510646 c 0,-0.183356 0.0291,-0.353483 0.0881,-0.51091 a 1.1414125,1.1414125 0 0 1 0.25665,-0.407458 1.1840104,1.1840104 0 0 1 0.40746,-0.266965 c 0.15875,-0.06377 0.33708,-0.09419 0.53419,-0.09075 a 1.2303125,1.2303125 0 0 1 0.47705,0.106363 c 0.15213,0.06747 0.28866,0.171979 0.40984,0.313796 l -0.2802,0.212725 z m 1.09669,-2.064279 h 0.34238 v 1.882511 h 0.0106 a 0.79904166,0.79904166 0 0 1 0.14499,-0.181769 0.96308332,0.96308332 0 0 1 0.19712,-0.142346 c 0.0728,-0.03969 0.14948,-0.07091 0.23098,-0.0934 a 0.90222916,0.90222916 0 0 1 0.24103,-0.03387 c 0.31142,0 0.54134,0.08202 0.68977,0.246327 0.1487,0.164306 0.22304,0.398727 0.22304,0.702998 v 1.540404 h -0.34237 v -1.343025 c 0,-0.269875 -0.0466,-0.47625 -0.13996,-0.619918 -0.0934,-0.143405 -0.26617,-0.215371 -0.51858,-0.215371 -0.0175,0 -0.0656,0.0071 -0.14526,0.0209 -0.0794,0.01376 -0.16325,0.05186 -0.25135,0.114035 -0.0884,0.06218 -0.16696,0.155575 -0.23601,0.280194 -0.0693,0.124354 -0.10398,0.297392 -0.10398,0.518583 v 1.244865 h -0.34238 z m 4.70403,2.432579 v -0.06244 c 0,-0.418041 -0.20743,-0.627591 -0.6223,-0.627591 -0.28363,0 -0.53102,0.09525 -0.74189,0.285485 L 58.12001,57.61502 c 0.22833,-0.23495 0.57044,-0.352689 1.02711,-0.352689 0.11747,0 0.23072,0.01746 0.33972,0.05186 0.10875,0.03466 0.20294,0.08731 0.28258,0.158221 0.0794,0.07091 0.1434,0.160073 0.19182,0.267229 0.0484,0.107156 0.0728,0.235214 0.0728,0.383646 v 1.084262 c 0,0.09313 0.004,0.191029 0.013,0.292894 0.008,0.102129 0.0182,0.186002 0.0286,0.251354 h -0.33205 a 1.9425708,1.9425708 0 0 1 -0.0233,-0.191558 c -0.005,-0.06932 -0.008,-0.13679 -0.008,-0.202407 h -0.0103 c -0.10028,0.162455 -0.21855,0.2794 -0.35507,0.350044 -0.13679,0.07091 -0.30374,0.106363 -0.50059,0.106363 -0.10742,0 -0.21114,-0.01482 -0.31142,-0.04418 -0.10027,-0.0291 -0.18917,-0.07408 -0.26723,-0.134938 a 0.68394791,0.68394791 0 0 1 -0.18653,-0.222779 c -0.0466,-0.08811 -0.0701,-0.191029 -0.0701,-0.308769 0,-0.19685 0.0511,-0.351896 0.15319,-0.464079 0.10187,-0.112448 0.22993,-0.196321 0.38365,-0.251354 a 1.8967979,1.8967979 0 0 1 0.49292,-0.103981 c 0.17462,-0.01376 0.33443,-0.02064 0.47969,-0.02064 z m -0.17648,0.27993 c -0.0862,0 -0.19446,0.0045 -0.32411,0.01323 a 1.8758958,1.8758958 0 0 0 -0.37333,0.06218 c -0.11906,0.03281 -0.22145,0.08361 -0.30612,0.152929 -0.0847,0.06906 -0.127,0.164041 -0.127,0.285221 0,0.07937 0.0164,0.147902 0.0492,0.204787 0.0328,0.05715 0.077,0.103981 0.13229,0.140229 0.0556,0.03625 0.11669,0.06218 0.18415,0.07779 0.0675,0.01561 0.13574,0.02328 0.20479,0.02328 0.12436,0 0.23284,-0.02064 0.32438,-0.06218 0.0916,-0.04154 0.16854,-0.0979 0.23072,-0.168804 0.0622,-0.07064 0.10795,-0.153458 0.13758,-0.248708 0.0291,-0.09525 0.0439,-0.196321 0.0439,-0.303477 v -0.176477 z m 1.93675,-1.218936 c 0.007,0.06588 0.0114,0.130704 0.0132,0.194469 0.002,0.06403 0.003,0.129117 0.003,0.194733 h 0.0101 c 0.0381,-0.06562 0.0865,-0.126206 0.14552,-0.181768 0.0585,-0.05503 0.12436,-0.102659 0.19685,-0.142346 a 1.0768542,1.0768542 0 0 1 0.23099,-0.0934 0.90222916,0.90222916 0 0 1 0.24103,-0.03387 c 0.31142,0 0.54107,0.08202 0.68977,0.246327 0.1487,0.164306 0.22304,0.398727 0.22304,0.702998 v 1.540404 h -0.34237 v -1.34329 c 0,-0.269875 -0.0466,-0.47625 -0.13996,-0.619919 -0.0934,-0.143404 -0.26644,-0.21537 -0.51858,-0.21537 -0.0175,0 -0.0659,0.0071 -0.14553,0.0209 -0.0794,0.01376 -0.16298,0.05186 -0.25135,0.114035 -0.0881,0.06218 -0.16669,0.155575 -0.23601,0.280194 -0.0691,0.124354 -0.10371,0.297392 -0.10371,0.518583 v 1.244865 h -0.34238 v -1.893094 c 0,-0.06588 -0.003,-0.148696 -0.008,-0.248973 -0.005,-0.100542 -0.0111,-0.195527 -0.018,-0.285485 h 0.35295 z m 3.00647,2.915179 c 0.10027,0.134938 0.23071,0.242888 0.39158,0.324115 0.16087,0.08123 0.33972,0.121708 0.53684,0.121708 0.17277,0 0.31961,-0.02513 0.44079,-0.07514 a 0.76464582,0.76464582 0 0 0 0.2929,-0.204787 c 0.0744,-0.08652 0.12806,-0.187854 0.16086,-0.303477 0.0328,-0.115888 0.0492,-0.239448 0.0492,-0.370682 v -0.435768 h -0.0103 c -0.1106,0.165893 -0.24554,0.283368 -0.40455,0.352689 a 1.2472458,1.2472458 0 0 1 -0.50297,0.103717 c -0.17648,0 -0.34158,-0.03122 -0.49557,-0.0934 a 1.2602104,1.2602104 0 0 1 -0.4019,-0.256646 1.1811,1.1811 0 0 1 -0.26961,-0.391583 1.228725,1.228725 0 0 1 -0.0987,-0.492919 c 0,-0.176212 0.0312,-0.340519 0.0934,-0.492654 a 1.2660312,1.2660312 0 0 1 0.25664,-0.399521 1.1575521,1.1575521 0 0 1 0.38894,-0.267229 1.2522729,1.2522729 0 0 1 0.49557,-0.09578 c 0.0728,0 0.14949,0.0071 0.23071,0.02064 a 1.0959042,1.0959042 0 0 1 0.48498,0.215371 c 0.0794,0.06059 0.15373,0.137583 0.22305,0.230981 h 0.0106 v -0.404812 h 0.34211 v 2.406915 c 0,0.131233 -0.0164,0.271198 -0.0492,0.419893 a 1.0384896,1.0384896 0 0 1 -0.19183,0.410105 c -0.0952,0.124354 -0.22754,0.227806 -0.39687,0.310885 -0.16934,0.08308 -0.39079,0.124354 -0.66411,0.124354 -0.24183,0 -0.45799,-0.03969 -0.64823,-0.119062 -0.18997,-0.07937 -0.363,-0.202407 -0.51858,-0.3683 l 0.254,-0.269875 z m 0.0622,-1.732491 c 0,0.128058 0.0233,0.248179 0.0699,0.360362 0.0468,0.112448 0.1106,0.211138 0.19209,0.295804 0.081,0.08467 0.17621,0.152136 0.28522,0.202142 0.10901,0.05027 0.22754,0.07541 0.35534,0.07541 a 0.94720832,0.94720832 0 0 0 0.65352,-0.256646 c 0.0862,-0.08149 0.15293,-0.179123 0.19949,-0.293158 0.0468,-0.1143 0.0685,-0.242094 0.0651,-0.383646 0,-0.128058 -0.0209,-0.248444 -0.0622,-0.360627 a 0.86730416,0.86730416 0 0 0 -0.18177,-0.295804 c -0.0794,-0.08467 -0.17621,-0.152136 -0.29024,-0.202142 a 0.94562082,0.94562082 0 0 0 -0.38391,-0.07541 c -0.12806,0 -0.24633,0.02513 -0.35534,0.07541 a 0.93053957,0.93053957 0 0 0 -0.47731,0.497946 c -0.0466,0.112183 -0.0699,0.232569 -0.0699,0.360362 z m 3.49912,0.124354 c 0.0106,0.121179 0.0397,0.235479 0.0884,0.342371 0.0481,0.107421 0.11218,0.19976 0.19182,0.277812 0.0794,0.07752 0.17119,0.138906 0.27517,0.183886 0.10345,0.04498 0.2159,0.06747 0.33681,0.06747 0.18336,0 0.34131,-0.04233 0.47466,-0.127 0.13309,-0.08467 0.23416,-0.182563 0.30348,-0.293159 l 0.26458,0.217752 c -0.14552,0.183357 -0.30532,0.314854 -0.47995,0.394229 -0.17462,0.07937 -0.36221,0.119328 -0.56277,0.119328 -0.17991,0 -0.3466,-0.03175 -0.50059,-0.09578 a 1.1713104,1.1713104 0 0 1 -0.39687,-0.26723 1.2649729,1.2649729 0 0 1 -0.26194,-0.404812 1.3229166,1.3229166 0 0 1 -0.0958,-0.508 c 0,-0.183356 0.0312,-0.35269 0.0934,-0.508529 a 1.2289896,1.2289896 0 0 1 0.25929,-0.404548 1.1908896,1.1908896 0 0 1 0.38894,-0.267229 1.2065,1.2065 0 0 1 0.4826,-0.09578 c 0.18309,0 0.34739,0.03307 0.49265,0.09869 0.14526,0.06562 0.26723,0.152929 0.36565,0.261937 0.0987,0.108744 0.17384,0.236802 0.22569,0.383646 a 1.3996458,1.3996458 0 0 1 0.0778,0.469371 v 0.155575 z m 1.64941,-0.279929 c 0,-0.231511 -0.0691,-0.419365 -0.20743,-0.562769 -0.13812,-0.143404 -0.33179,-0.215371 -0.58076,-0.215371 -0.11086,0 -0.21802,0.0217 -0.32174,0.06509 a 0.90672707,0.90672707 0 0 0 -0.27225,0.173567 c -0.0778,0.07276 -0.14023,0.155575 -0.1868,0.248973 a 0.64161458,0.64161458 0 0 0 -0.0699,0.290512 z"
       fill="#ffffff"
       id="path216"
       style="stroke-width:0.264583" />
    <path
       d="m 51.99781,61.445127 h 1.14856 l 2.35902,3.617383 h 0.0138 v -3.617383 h 0.86651 v 4.869127 H 55.2853 L 52.87812,62.57966 h -0.0138 v 3.734594 h -0.86651 z m 5.57424,2.455333 c 0,-0.389996 0.064,-0.744008 0.19236,-1.062831 0.12832,-0.318558 0.30612,-0.590021 0.53313,-0.814917 a 2.3378583,2.3378583 0 0 1 0.81148,-0.519377 c 0.31406,-0.121443 0.65908,-0.182033 1.03505,-0.182033 0.38047,-0.0045 0.72919,0.05159 1.04537,0.168275 a 2.2854708,2.2854708 0 0 1 0.81835,0.512498 c 0.2294,0.224896 0.40826,0.495035 0.53658,0.811477 0.12832,0.316442 0.19262,0.669396 0.19262,1.059127 0,0.380735 -0.0643,0.72681 -0.19262,1.03849 a 2.3809854,2.3809854 0 0 1 -0.53631,0.804598 2.4500416,2.4500416 0 0 1 -0.81862,0.52652 c -0.31618,0.125677 -0.6649,0.191029 -1.04511,0.195792 -0.37623,0 -0.72125,-0.06085 -1.03531,-0.182298 a 2.359025,2.359025 0 0 1 -0.81148,-0.515937 2.3669625,2.3669625 0 0 1 -0.53313,-0.801159 c -0.12833,-0.311679 -0.19236,-0.657754 -0.19236,-1.038489 z m 0.90753,-0.0553 c 0,0.261409 0.0402,0.502179 0.12065,0.722313 a 1.6949208,1.6949208 0 0 0 0.34025,0.570706 1.5822083,1.5822083 0 0 0 0.52626,0.378354 c 0.20373,0.09181 0.43206,0.137584 0.68421,0.137584 0.25215,0 0.48154,-0.04577 0.68792,-0.137584 a 1.5740062,1.5740062 0 0 0 0.52943,-0.378354 1.6965083,1.6965083 0 0 0 0.34052,-0.570706 c 0.0802,-0.220134 0.12038,-0.460904 0.12038,-0.722313 0,-0.242887 -0.0402,-0.4699 -0.12038,-0.680773 a 1.6880416,1.6880416 0 0 0 -0.34052,-0.55377 1.5583958,1.5583958 0 0 0 -0.5297,-0.371211 c -0.20637,-0.08943 -0.4355,-0.134144 -0.68765,-0.134144 -0.25215,0 -0.48022,0.04471 -0.68421,0.134144 a 1.5663333,1.5663333 0 0 0 -0.52626,0.371211 1.6861896,1.6861896 0 0 0 -0.34025,0.553772 1.8983854,1.8983854 0 0 0 -0.12039,0.680773 z m 4.82652,-2.4003 h 0.94774 l 0.91334,3.507582 h 0.0135 l 1.09193,-3.507317 h 0.85143 l 1.07156,3.507317 h 0.0138 l 0.95436,-3.507317 h 0.87868 l -1.41447,4.869127 H 67.80406 L 66.67773,62.60744 h -0.0138 l -1.12606,3.706812 h -0.7964 L 63.3061,61.445127 Z"
       fill="#00c26f"
       id="path218"
       style="stroke-width:0.264583" />
  </g>
</svg>
