<?xml version="1.0" encoding="UTF-8" standalone="no"?>
<svg
   width="20.293699"
   height="23.718775"
   viewBox="0 0 20.293699 23.718775"
   fill="none"
   version="1.1"
   id="svg32"
   sodipodi:docname="crypto.svg"
   inkscape:version="1.2.2 (b0a8486541, 2022-12-01)"
   xmlns:inkscape="http://www.inkscape.org/namespaces/inkscape"
   xmlns:sodipodi="http://sodipodi.sourceforge.net/DTD/sodipodi-0.dtd"
   xmlns="http://www.w3.org/2000/svg"
   xmlns:svg="http://www.w3.org/2000/svg">
  <defs
     id="defs36" />
  <sodipodi:namedview
     id="namedview34"
     pagecolor="#ffffff"
     bordercolor="#666666"
     borderopacity="1.0"
     inkscape:showpageshadow="2"
     inkscape:pageopacity="0.0"
     inkscape:pagecheckerboard="0"
     inkscape:deskcolor="#d1d1d1"
     showgrid="false"
     inkscape:zoom="11.5"
     inkscape:cx="46.521739"
     inkscape:cy="11.826087"
     inkscape:window-width="2560"
     inkscape:window-height="1371"
     inkscape:window-x="0"
     inkscape:window-y="1112"
     inkscape:window-maximized="1"
     inkscape:current-layer="svg32" />
  <path
     d="m 6.31834,5.262615 h 7.64676 l 0.9223,3.94607 H 5.43266 Z"
     fill="#f7f9fa"
     id="path22" />
  <path
     d="m 11.8223,12.007575 0.816,-2.20241 H 7.68861 l 0.83337,2.20241 -0.25454,2.4725 h 1.88816 l 1.9038,-0.0106 z"
     fill="#f7f9fa"
     id="path24" />
  <path
     d="m 14.9047,10.542875 -2.2385,1.4754 v 2.6207 l -1.7121,1.6624 v 0.7818 l 1.6493,1.5371 h 1.3791 l 3.4764,-6.1308 z"
     fill="#f7f9fa"
     id="path26" />
  <path
     d="m 7.6799,12.018175 -2.26648,-1.4577 -2.56287,1.9289 3.49387,6.1486 h 1.39651 l 1.6493,-1.5548 v -0.7818 l -1.71033,-1.6624 z"
     fill="#f7f9fa"
     id="path28" />
  <path
     fill-rule="evenodd"
     clip-rule="evenodd"
     d="M 0.0261517,5.915565 10.1469,0 20.2937,5.929685 v 11.85759 l -10.1451,5.9315 -0.0261,-0.0141 L 0,17.789075 V 5.929685 Z M 10.1469,1.210645 1.03735,6.536775 v 10.6487 l 9.10955,5.3244 9.1112,-5.3244 v -10.6487 z"
     fill="#f7f9fa"
     id="path30" />
</svg>
