<?xml version="1.0" encoding="UTF-8" standalone="no"?>
<svg
   width="132.48746"
   height="202.54889"
   viewBox="0 0 132.48746 202.54889"
   fill="none"
   version="1.1"
   id="svg2666"
   sodipodi:docname="htx.svg"
   inkscape:version="1.2.2 (b0a8486541, 2022-12-01)"
   xmlns:inkscape="http://www.inkscape.org/namespaces/inkscape"
   xmlns:sodipodi="http://sodipodi.sourceforge.net/DTD/sodipodi-0.dtd"
   xmlns="http://www.w3.org/2000/svg"
   xmlns:svg="http://www.w3.org/2000/svg">
  <sodipodi:namedview
     id="namedview2668"
     pagecolor="#ffffff"
     bordercolor="#666666"
     borderopacity="1.0"
     inkscape:showpageshadow="2"
     inkscape:pageopacity="0.0"
     inkscape:pagecheckerboard="0"
     inkscape:deskcolor="#d1d1d1"
     showgrid="false"
     inkscape:zoom="1.8642351"
     inkscape:cx="188.81739"
     inkscape:cy="161.99674"
     inkscape:window-width="2560"
     inkscape:window-height="1371"
     inkscape:window-x="0"
     inkscape:window-y="1112"
     inkscape:window-maximized="1"
     inkscape:current-layer="g2659" />
  <g
     clip-path="url(#clip0_14_10)"
     id="g2659"
     transform="translate(3.2221413e-5,-0.50000048)">
    <path
       d="m 87.0818,62.636 c 0.602,-29.81 -16.278,-55.786 -25.07,-62.029001 -0.04,-0.0402 -0.823,-0.461702 -0.763,0.702601 0,0.02 -0.02,0.02 -0.02,0.0401 -0.903,56.3083 -29.847,71.4843 -45.563,92.1203 -34.925,45.889 -5.78096,98.243 31.974,108.159 0.643,0.161 2.389,0.683 5.701,1.365 1.726,0.362 2.228,-1.104 0.963,-3.292 -4.516,-7.849 -12.545,-21.098 -14.13,-38.121 -3.613,-39.526 46.205,-64.257 46.908,-98.945 z"
       fill="#ffffff"
       id="path2647" />
    <path
       d="m 106.11,81.727 c -0.301,-0.221 -0.722,-0.201 -0.762,0.18 -0.803,7.167 -8.21,22.022 -17.965,35.913 -32.838,46.833 -16.298,68.071 -3.452,82.806 2.368,2.73 3.552,2.128 4.797,0.181 1.164,-1.847 2.93,-4.196 10.518,-7.789 1.184,-0.562 29.847,-15.778 32.958,-50.426 2.991,-33.524 -18.507,-54.723 -26.094,-60.865 z"
       fill="#008cd6"
       id="path2649" />
  </g>
  <defs
     id="defs2664">
    <clipPath
       id="clip0_14_10">
      <rect
         width="525"
         height="203"
         fill="#ffffff"
         id="rect2661"
         x="0"
         y="0" />
    </clipPath>
  </defs>
</svg>
