<?xml version="1.0" encoding="UTF-8" standalone="no"?>
<svg
   height="19"
   viewBox="0 0 17.5945 11.875"
   class="fill-ds-brand-brand ms-ds-0 me-ds-0 mt-ds-0 mb-ds-0"
   version="1.1"
   id="svg2809"
   sodipodi:docname="kraken.svg"
   width="17.5945"
   inkscape:version="1.2.2 (b0a8486541, 2022-12-01)"
   xmlns:inkscape="http://www.inkscape.org/namespaces/inkscape"
   xmlns:sodipodi="http://sodipodi.sourceforge.net/DTD/sodipodi-0.dtd"
   xmlns="http://www.w3.org/2000/svg"
   xmlns:svg="http://www.w3.org/2000/svg">
  <defs
     id="defs2813" />
  <sodipodi:namedview
     id="namedview2811"
     pagecolor="#ffffff"
     bordercolor="#666666"
     borderopacity="1.0"
     inkscape:showpageshadow="2"
     inkscape:pageopacity="0.0"
     inkscape:pagecheckerboard="0"
     inkscape:deskcolor="#d1d1d1"
     showgrid="false"
     inkscape:zoom="15.164835"
     inkscape:cx="1.8463768"
     inkscape:cy="6.1326087"
     inkscape:window-width="2560"
     inkscape:window-height="1371"
     inkscape:window-x="0"
     inkscape:window-y="1112"
     inkscape:window-maximized="1"
     inkscape:current-layer="svg2809" />
  <path
     d="m 8.8599325,-0.98093975 c -4.85764,0 -8.79520998,3.98920595 -8.79520998,8.91005595 v 3.8183198 c 0,0.7024 0.561922,1.2713 1.25557998,1.2713 0.69365,0 1.25969,-0.5689 1.25969,-1.2713 V 7.9291162 c 0,-0.70447 0.55986,-1.27346 1.25557,-1.27346 0.69366,0 1.25558,0.56899 1.25558,1.27346 v 3.8183198 c 0,0.7024 0.56192,1.2713 1.25558,1.2713 0.69571,0 1.25763,-0.5689 1.25763,-1.2713 V 7.9291162 c 0,-0.70447 0.56192,-1.27346 1.25558,-1.27346 0.69571,0 1.2596905,0.56899 1.2596905,1.27346 v 3.8183198 c 0,0.7024 0.5619,1.2713 1.2556,1.2713 0.6936,0 1.2556,-0.5689 1.2556,-1.2713 V 7.9291162 c 0,-0.70447 0.5619,-1.27346 1.2596,-1.27346 0.6937,0 1.2556,0.56899 1.2556,1.27346 v 3.8183198 c 0,0.7024 0.5619,1.2713 1.2577,1.2713 0.6936,0 1.2555,-0.5689 1.2555,-1.2713 V 7.9291162 c 0,-4.92085 -3.9396,-8.91005595 -8.7992905,-8.91005595 z"
     id="path2807" />
</svg>
