<?xml version="1.0" encoding="UTF-8" standalone="no"?>
<svg
   width="24.596399"
   height="26.854099"
   viewBox="0 0 24.596399 26.854099"
   fill="none"
   version="1.1"
   id="svg18"
   sodipodi:docname="kucoin.svg"
   inkscape:version="1.2.2 (b0a8486541, 2022-12-01)"
   xmlns:inkscape="http://www.inkscape.org/namespaces/inkscape"
   xmlns:sodipodi="http://sodipodi.sourceforge.net/DTD/sodipodi-0.dtd"
   xmlns="http://www.w3.org/2000/svg"
   xmlns:svg="http://www.w3.org/2000/svg">
  <defs
     id="defs22" />
  <sodipodi:namedview
     id="namedview20"
     pagecolor="#ffffff"
     bordercolor="#666666"
     borderopacity="1.0"
     inkscape:showpageshadow="2"
     inkscape:pageopacity="0.0"
     inkscape:pagecheckerboard="0"
     inkscape:deskcolor="#d1d1d1"
     showgrid="false"
     inkscape:zoom="15.164835"
     inkscape:cx="43.983333"
     inkscape:cy="15.364493"
     inkscape:window-width="2560"
     inkscape:window-height="1371"
     inkscape:window-x="0"
     inkscape:window-y="1112"
     inkscape:window-maximized="1"
     inkscape:current-layer="svg18" />
  <path
     fill-rule="evenodd"
     clip-rule="evenodd"
     d="m 7.73435,13.449775 7.96185,7.9391 5.0273,-5.0273 c 0.8872,-0.8872 2.3203,-0.8872 3.2075,0 0.8872,0.8872 0.8872,2.3203 0,3.2075 l -6.6197,6.6197 c -0.8872,0.8871 -2.3431,0.8871 -3.2075,0 l -9.55418,-9.5542 v 5.687 c 0,1.2511 -1.02367,2.2748 -2.27481,2.2748 C 1.02366,24.596375 0,23.572675 0,22.321575 V 4.532555 c 0,-1.25114 1.02366,-2.27481 2.27481,-2.27481 1.25114,0 2.27481,1.02367 2.27481,2.27481 v 5.68702 l 9.55418,-9.55419 c 0.8872,-0.88718 2.3203,-0.88718 3.2075,0 l 6.6197,6.61969 c 0.8872,0.88718 0.8872,2.3203 0,3.2075 -0.8872,0.8872 -2.3203,0.8872 -3.2075,0 l -5.0501,-5.0046 z m 7.96135,-2.2747 c -1.2511,0 -2.2748,1.0236 -2.2748,2.2748 0,1.2511 1.0237,2.2748 2.2748,2.2748 1.2512,0 2.2748,-1.0237 2.2748,-2.2748 0,-1.2512 -1.0236,-2.2748 -2.2748,-2.2748 z"
     fill="#01bc8d"
     id="path2" />
</svg>
