<?xml version="1.0" encoding="UTF-8" standalone="no"?>
<svg
   width="32.585651"
   height="20.038311"
   viewBox="0 0 32.585651 20.038311"
   fill="none"
   version="1.1"
   id="svg7196"
   sodipodi:docname="mexc.svg"
   inkscape:version="1.2.2 (b0a8486541, 2022-12-01)"
   xmlns:inkscape="http://www.inkscape.org/namespaces/inkscape"
   xmlns:sodipodi="http://sodipodi.sourceforge.net/DTD/sodipodi-0.dtd"
   xmlns="http://www.w3.org/2000/svg"
   xmlns:svg="http://www.w3.org/2000/svg">
  <defs
     id="defs7200" />
  <sodipodi:namedview
     id="namedview7198"
     pagecolor="#ffffff"
     bordercolor="#666666"
     borderopacity="1.0"
     inkscape:showpageshadow="2"
     inkscape:pageopacity="0.0"
     inkscape:pagecheckerboard="0"
     inkscape:deskcolor="#d1d1d1"
     showgrid="false"
     inkscape:zoom="9.8571429"
     inkscape:cx="59.246377"
     inkscape:cy="-5.7826087"
     inkscape:window-width="2560"
     inkscape:window-height="1371"
     inkscape:window-x="0"
     inkscape:window-y="1112"
     inkscape:window-maximized="1"
     inkscape:current-layer="svg7196" />
  <path
     fill-rule="evenodd"
     clip-rule="evenodd"
     d="M 3.8538366,20.038312 H 22.129997 c 1.0862,0 1.9128,-1.2912 1.2873,-2.2291 L 14.290797,1.9302817 C 13.624097,0.78129972 12.359697,0 10.911497,0 9.3941966,0 8.0607866,0.87321872 7.4170966,2.1600817 L 0.47448663,14.201412 c -1.41378,2.5236 0.51375,5.8369 3.37934997,5.8369 z"
     fill="#0043ff"
     id="path7182" />
  <path
     fill-rule="evenodd"
     clip-rule="evenodd"
     d="m 18.244797,5.8605217 c -1.0805,-1.86135 -0.4368,-4.25124 1.4253,-5.33128398 1.8621,-1.080044 4.2529,-0.4366112 5.3334,1.42474398 l 7.0576,12.2252303 c 1.0805,1.8613 0.4367,4.2512 -1.4254,5.3312 -1.8621,1.0801 -4.2529,0.4366 -5.3334,-1.4247 z"
     fill="#0043ff"
     id="path7184" />
</svg>
