<?xml version="1.0" encoding="UTF-8" standalone="no"?>
<svg
   viewBox="0 0 17.427 28"
   version="1.1"
   id="svg12"
   sodipodi:docname="phemex.svg"
   width="17.427"
   height="28"
   inkscape:version="1.2.2 (b0a8486541, 2022-12-01)"
   xmlns:inkscape="http://www.inkscape.org/namespaces/inkscape"
   xmlns:sodipodi="http://sodipodi.sourceforge.net/DTD/sodipodi-0.dtd"
   xmlns="http://www.w3.org/2000/svg"
   xmlns:svg="http://www.w3.org/2000/svg">
  <defs
     id="defs16" />
  <sodipodi:namedview
     id="namedview14"
     pagecolor="#ffffff"
     bordercolor="#666666"
     borderopacity="1.0"
     inkscape:showpageshadow="2"
     inkscape:pageopacity="0.0"
     inkscape:pagecheckerboard="0"
     inkscape:deskcolor="#d1d1d1"
     showgrid="false"
     inkscape:zoom="11.5"
     inkscape:cx="43.043478"
     inkscape:cy="14"
     inkscape:window-width="2560"
     inkscape:window-height="1371"
     inkscape:window-x="0"
     inkscape:window-y="1112"
     inkscape:window-maximized="1"
     inkscape:current-layer="g10" />
  <g
     fill-rule="nonzero"
     fill="none"
     id="g10"
     transform="translate(-0.106)">
    <path
       d="m 0.106,21 c 0,3.866 3.121,7 6.971,7 V 14 c 0,3.866 -3.121,7 -6.97,7"
       fill="#38d102"
       id="path4" />
    <path
       d="m 0.106,7 v 14 c 3.85,0 6.971,-3.134 6.971,-7 0,-3.866 -3.121,-7 -6.97,-7 m 10.455,7 c 0,3.866 3.121,7 6.971,7 V 7 c 0,3.866 -3.12,7 -6.97,7"
       fill="#ffffff"
       id="path6" />
    <path
       d="m 10.562,0 v 14 c 3.85,0 6.971,-3.134 6.971,-7 0,-3.866 -3.12,-7 -6.97,-7"
       fill="#3ceaf3"
       id="path8" />
  </g>
</svg>
