<svg fill="none" height="32" width="27" xmlns="http://www.w3.org/2000/svg"><g clip-path="url(#a)"><path d="M5.63 23.895a5.699 5.699 0 0 0 1.153 6.353 5.649 5.649 0 0 0 3.995 1.663 5.627 5.627 0 0 0 3.995-1.663l10.398-10.444a5.817 5.817 0 0 0 1.691-4.103c0-1.383-.426-2.715-1.356-3.76-.459-.199-.966-.26-1.457-.167-.44.083-.843.345-1.178.653L12.994 22.61c-.183.19-.394.348-.623.469a8.41 8.41 0 0 0 .358-.235l-.03.012.03-.02.03-.02-.06.04a8.231 8.231 0 0 1-7.069 1.04Z" fill="#0044C9"></path><path d="m12.7 22.857.059-.041a2.443 2.443 0 0 1-2.33-.266 2.512 2.512 0 0 1-1.052-1.833 2.528 2.528 0 0 1 .712-1.992l3.287-3.332 4.802-4.823.02-.018a.91.91 0 0 1 .041-.034l.723-.727a5.508 5.508 0 0 1 1.117-.104c.845 0 1.563.082 2.279.29a5.535 5.535 0 0 1 3.16 1.969 2.5 2.5 0 0 0-1.469-.172c-.44.083-.842.345-1.177.653L12.995 22.61c-.184.19-.394.348-.624.469a8.25 8.25 0 0 0 .358-.235l-.03.012Z" fill="#0038C7"></path><path d="M20.668 3.483a5.255 5.255 0 0 0-1.136-1.707 6.06 6.06 0 0 0-4.288-1.785 6.037 6.037 0 0 0-4.287 1.785l-8.56 8.598A8.239 8.239 0 0 0 0 16.058a8.241 8.241 0 0 0 2.217 5.756l.09.087.092.096c.084.083.172.162.265.236a8.231 8.231 0 0 0 10.094.582 2.443 2.443 0 0 1-2.33-.265 2.513 2.513 0 0 1-1.052-1.833 2.528 2.528 0 0 1 .711-1.992l3.288-3.332 4.802-4.824c.02-.017.04-.035.061-.051l1.293-1.3a5.281 5.281 0 0 0 1.136-5.733v-.002Z" fill="#0F75FC"></path></g><defs><clipPath id="a"><path d="M0-.009h26.907v31.88H0z" fill="#fff"></path></clipPath></defs></svg>
