<?xml version="1.0" encoding="UTF-8" standalone="no"?>
<svg
   width="35"
   height="35"
   viewBox="0 0 35 35"
   version="1.1"
   id="svg1958"
   sodipodi:docname="mdex.svg"
   inkscape:version="1.2.2 (b0a8486541, 2022-12-01)"
   xmlns:inkscape="http://www.inkscape.org/namespaces/inkscape"
   xmlns:sodipodi="http://sodipodi.sourceforge.net/DTD/sodipodi-0.dtd"
   xmlns:xlink="http://www.w3.org/1999/xlink"
   xmlns="http://www.w3.org/2000/svg"
   xmlns:svg="http://www.w3.org/2000/svg">
  <sodipodi:namedview
     id="namedview1960"
     pagecolor="#ffffff"
     bordercolor="#666666"
     borderopacity="1.0"
     inkscape:showpageshadow="2"
     inkscape:pageopacity="0.0"
     inkscape:pagecheckerboard="0"
     inkscape:deskcolor="#d1d1d1"
     showgrid="false"
     inkscape:zoom="11.896552"
     inkscape:cx="58.84058"
     inkscape:cy="17.484058"
     inkscape:window-width="2560"
     inkscape:window-height="1371"
     inkscape:window-x="0"
     inkscape:window-y="1112"
     inkscape:window-maximized="1"
     inkscape:current-layer="\u7F16\u7EC4-7" />
  <title
     id="title1932">Logo</title>
  <defs
     id="defs1935">
    <circle
       id="path-1"
       cx="17.5"
       cy="17.5"
       r="17.5" />
  </defs>
  <g
     id="HECO"
     stroke="none"
     stroke-width="1"
     fill="none"
     fill-rule="evenodd">
    <g
       id="HECO\u9996\u9875-Light"
       transform="translate(-50,-20)">
      <g
         id="\u7F16\u7EC4-10"
         transform="translate(50,10)">
        <g
           id="\u7F16\u7EC4-7"
           transform="translate(0,10)">
          <g
             id="\u7F16\u7EC4-6"
             transform="translate(45,8)" />
          <g
             id="HMDX\u5907\u4EFD-3">
            <mask
               id="mask-2"
               fill="#ffffff">
              <use
                 xlink:href="#path-1"
                 id="use1944" />
            </mask>
            <use
               id="\u8499\u7248"
               fill="#12193e"
               xlink:href="#path-1" />
            <g
               id="\u7F16\u7EC4-81"
               mask="url(#mask-2)">
              <g
                 transform="translate(6.3,8.4)"
                 id="g1950">
                <path
                   d="m 0.00271172,15.048353 c 0,1.526364 1.32703388,2.747536 2.94080978,2.747536 H 3.230464 L 3.1586782,5.1439635 c 0,-0.4410125 0.1076787,-0.8141147 0.3228354,-1.1532618 C 3.6966704,3.6513524 4.0195057,3.4140707 4.4498192,3.210542 4.8801327,3.0409685 5.3106467,2.9730582 5.7050674,3.0409685 6.0996885,3.1086766 6.4941091,3.2784523 6.8169445,3.5836443 l 5.2361495,4.4434739 c 0.03569,0.033955 0.251049,0.2035287 0.430313,0.3731022 0.537992,0.4410125 0.824935,0.6782942 0.824935,1.3905436 0,0.610586 -0.25105,1.153262 -0.681363,1.560521 -0.430514,0.406856 -1.004199,0.644339 -1.64987,0.644339 -0.64547,0 -1.2193547,-0.237483 -1.6496683,-0.644339 -0.430514,-0.407259 -0.6815636,-0.949935 -0.6815636,-1.560521 0,-0.7462045 0.3228354,-1.0174413 0.8967204,-1.4922069 0.071786,-0.06791 0.5020995,-0.4412146 0.6813635,-0.576833 L 7.821143,5.6866393 7.390629,6.0597416 C 6.0996885,7.1450932 5.4181248,7.7217241 5.4181248,9.8247191 c 0,1.4586559 0.6097779,2.7475359 1.6139764,3.6972699 1.0041985,0.949733 2.4028177,1.526364 3.9091158,1.526364 1.54219,0 2.905117,-0.576631 3.909316,-1.526364 1.004198,-0.949734 1.613775,-2.272569 1.613775,-3.6972699 0,-2.0690399 -0.717256,-2.6796259 -1.972504,-3.6633143 -0.07179,-0.067708 -0.143571,-0.1356184 -0.39442,-0.3391471 L 8.9687125,1.3110757 C 8.1796707,0.63257935 7.2113651,0.19156684 6.2071666,0.05594842 5.2029681,-0.07967 4.1628767,0.02199329 3.1586782,0.4630058 2.1544797,0.87006318 1.365438,1.5485595 0.82764635,2.3624722 0.28965423,3.1765869 -0.03318116,4.1263201 0.00271172,5.1439635 Z"
                   id="Fill-1"
                   fill="#ffffff" />
                <path
                   d="M 14.611357,4.1805204 15.278995,3.604711 c 0.333819,-0.3048521 0.741709,-0.4741247 1.149799,-0.5419144 0.40789,-0.067588 0.852915,0 1.29794,0.1694744 0.40789,0.1692726 0.741709,0.4402298 1.001457,0.7789768 0.222413,0.3385452 0.370955,0.711187 0.333819,1.1516186 L 18.987739,17.79597 h 0.296684 c 1.669095,0 3.004371,-1.219409 3.041306,-2.743468 L 22.4,5.1628664 C 22.4,4.1466255 22.103316,3.1644812 21.546885,2.3855044 20.990653,1.5726327 20.137538,0.92903367 19.136281,0.48880384 18.097689,0.08246888 17.022161,-0.05311061 15.983569,0.08246888 14.945176,0.21784661 13.943719,0.6582782 13.12774,1.3355704 l -0.667439,0.5758093 -0.667837,0.5756076 2.485074,2.03228 z"
                   id="Fill-3"
                   fill="#4ca9dc" />
              </g>
            </g>
          </g>
        </g>
      </g>
    </g>
  </g>
</svg>
