<?xml version="1.0" encoding="UTF-8" standalone="no"?>
<svg
   width="28.187693"
   height="31.24264"
   viewBox="0 0 28.187693 31.24264"
   fill="none"
   version="1.1"
   id="svg183"
   sodipodi:docname="osmosis.svg"
   inkscape:version="1.2.2 (b0a8486541, 2022-12-01)"
   xmlns:inkscape="http://www.inkscape.org/namespaces/inkscape"
   xmlns:sodipodi="http://sodipodi.sourceforge.net/DTD/sodipodi-0.dtd"
   xmlns="http://www.w3.org/2000/svg"
   xmlns:svg="http://www.w3.org/2000/svg">
  <sodipodi:namedview
     id="namedview185"
     pagecolor="#ffffff"
     bordercolor="#666666"
     borderopacity="1.0"
     inkscape:showpageshadow="2"
     inkscape:pageopacity="0.0"
     inkscape:pagecheckerboard="0"
     inkscape:deskcolor="#d1d1d1"
     showgrid="false"
     inkscape:zoom="10.615385"
     inkscape:cx="28.637681"
     inkscape:cy="15.449275"
     inkscape:window-width="2560"
     inkscape:window-height="1371"
     inkscape:window-x="0"
     inkscape:window-y="1112"
     inkscape:window-maximized="1"
     inkscape:current-layer="svg183" />
  <path
     d="m 28.10555,5.522849 c -0.313,-1.22473 -1.3192,-2.44945 -3.1303,-3.81284 C 23.52185,0.623919 21.97915,0 20.74935,0 c -0.246,0 -0.4695,0.023103 -0.6931,0.069323 -0.559,0.115543 -1.0509,0.531486 -1.3639,1.155406 -0.3802,0.73947 -0.4696,1.73313 -0.2236,2.33394 0.0894,0.18487 0.2012,0.41593 0.3354,0.6239 -1.185,0.73948 -1.8559,0.94746 -1.9453,0.97058 3.0856,1.06293 5.6569,3.28137 7.2668,6.16989 l 0.0223,-0.2773 c 0.0671,-0.7626 0.2907,-1.64072 0.6037,-2.54192 0.313,0.09242 0.6261,0.13867 0.9391,0.13867 0.8273,0 1.5428,-0.34665 1.99,-0.97058 0.4472,-0.62392 0.6261,-1.45583 0.4248,-2.14906 z"
     fill="#5e12a0"
     id="path16" />
  <path
     d="m 24.88605,7.833789 c 2.0347,0.57775 2.8619,-1.03981 2.5936,-2.12594 -0.2906,-1.08605 -1.2297,-2.19527 -2.8844,-3.44312 -1.6545,-1.24784 -3.3314,-1.75623 -4.4047,-1.52514 -1.0733,0.23108 -1.3863,1.91798 -1.1179,2.56501 0.1117,0.25419 0.3577,0.62389 0.6931,1.03984 -0.4248,0.3004 -0.8273,0.53151 -1.1627,0.73948 2.057,0.94746 3.8458,2.42641 5.1873,4.27507 0.1565,-0.62392 0.3802,-1.17855 0.5814,-1.6638 0.1565,0.02312 0.3354,0.0693 0.5143,0.1386 z"
     fill="url(#paint0_radial_2001_3188)"
     id="path18"
     style="fill:url(#paint0_radial_2001_3188)" />
  <path
     d="m 13.23705,30.479639 c 6.903,0 12.4989,-5.7834 12.4989,-12.9175 0,-7.1341 -5.5959,-12.91749 -12.4989,-12.91749 -6.90284,0 -12.49877,5.78339 -12.49877,12.91749 0,7.1341 5.59593,12.9175 12.49877,12.9175 z"
     fill="url(#paint1_radial_2001_3188)"
     id="path20"
     style="fill:url(#paint1_radial_2001_3188)" />
  <path
     opacity="0.6"
     d="m 26.45135,4.644699 c -1.6993,-1.84868 -3.1302,-2.33395 -4.8519,-2.72679 -1.3416,-0.32352 -0.9838,-1.10919 0.6484,-0.94744 -0.7826,-0.2773 -1.5205,-0.34662 -2.0571,-0.23108 -1.0732,0.23108 -1.3862,1.91799 -1.1179,2.56502 0.1117,0.25418 0.3577,0.62393 0.6931,1.03988 -0.6037,0.41596 -1.118,0.71636 -1.5428,0.94746 0.2013,0.09242 0.4472,0.2079 0.7379,0.3697 0.7602,0.41595 1.5875,1.10918 1.5875,1.10918 -1.2521,-1.10918 -0.9838,-1.61756 0.7378,-2.86541 0.5366,-0.39284 1.5205,-0.34663 2.4372,0.13867 0.9167,0.48525 1.99,1.70999 1.99,1.70999 l -1.0285,2.03351 c 0.067,0.02312 0.1341,0.04625 0.2012,0.06937 0.6484,0.18485 1.1627,0.1386 1.5651,-0.02312 0.4696,-0.3004 1.6993,-1.31716 0,-3.18894 z"
     fill="#a98698"
     id="path22" />
  <path
     d="m 21.57635,3.027379 c 0.4472,0.18487 1.0285,0.50839 1.744,0.99369 0.8497,0.57768 1.5875,1.22474 2.057,1.73311 -0.7825,1.06293 -1.2968,2.51876 -1.6098,3.53552 0.1565,0.23114 0.3354,0.46224 0.4919,0.69334 0.1565,-0.57779 0.4249,-1.43282 0.7826,-2.28777 0.0895,0.02312 0.2012,0.02312 0.313,0.02312 0.2683,0 0.5813,-0.04625 0.8273,-0.25422 0.1789,-0.13868 0.3801,-0.39283 0.3577,-0.85503 0,-0.43901 -0.3354,-0.99363 -1.0284,-1.66374 -0.492,-0.48532 -1.1628,-1.01683 -1.8335,-1.50206 -1.9229,-1.31718 -3.2645,-1.68691 -3.8682,-1.06299 -0.4024,0.41596 -0.3577,0.92434 -0.2236,1.29407 -0.7155,0.48525 -1.3192,0.83191 -1.7216,1.06301 0.2683,0.09242 0.5143,0.20797 0.7826,0.32345 0.7154,-0.39283 1.744,-1.06293 2.929,-2.0335 z m 4.2259,3.30448 c 0.0671,0.11555 0.0894,0.2311 0.0894,0.3004 0,0.20798 -0.0671,0.27728 -0.1117,0.32353 -0.0895,0.0693 -0.2684,0.11555 -0.4249,0.11555 0.1342,-0.27728 0.2907,-0.50838 0.4472,-0.73948 z m -5.5227,-3.44312 c 0.067,-0.06932 0.2459,-0.11555 0.5366,-0.06933 -0.2236,0.18487 -0.4472,0.34663 -0.6708,0.50838 -0.0223,-0.16175 0,-0.32351 0.1342,-0.43905 z"
     fill="#5e12a0"
     id="path24" />
  <path
     d="M 13.23675,3.882449 C 5.92521,3.882449 0,10.006139 0,17.562539 c 0,7.5564 5.92521,13.6801 13.23675,13.6801 7.3114,0 13.2366,-6.1237 13.2366,-13.6801 0,-7.5564 -5.9476,-13.68009 -13.2366,-13.68009 z m 0,26.59759 c -6.9091,0 -12.49889,-5.777 -12.49889,-12.9175 0,-7.1404 5.58979,-12.91749 12.49889,-12.91749 6.9089,0 12.4988,5.77709 12.4988,12.91749 0,7.1405 -5.6122,12.9175 -12.4988,12.9175 z"
     fill="#5e12a0"
     id="path26" />
  <path
     opacity="0.6"
     d="m 13.23705,30.479639 c 6.903,0 12.4989,-5.7834 12.4989,-12.9175 0,-7.1341 -5.5959,-12.91749 -12.4989,-12.91749 -6.90284,0 -12.49877,5.78339 -12.49877,12.91749 0,7.1341 5.59593,12.9175 12.49877,12.9175 z"
     fill="url(#paint2_linear_2001_3188)"
     id="path28"
     style="fill:url(#paint2_linear_2001_3188)" />
  <path
     opacity="0.6"
     d="m 13.14735,28.908539 c -6.81961,-1.1323 -11.44799,-7.7643 -10.33005,-14.8124 0.49193,-3.1195 2.01231,-5.77698 4.15885,-7.69502 -3.13032,1.87179 -5.45566,5.13002 -6.08172,9.10472 -1.09561,7.048 3.53274,13.6801 10.33002,14.8124 3.801,0.647 7.4679,-0.5778 10.1734,-2.9811 -2.3924,1.4328 -5.2991,2.0567 -8.2505,1.5714 z"
     fill="#a98698"
     id="path30" />
  <path
     opacity="0.6"
     d="m 15.22685,4.829549 c -3.1526,-0.53151 -6.2158,0.20797 -8.71999,1.84866 -0.04474,0.04625 -0.08941,0.09242 -0.08941,0.09242 0.9614,-0.6008 2.3701,-1.1323 2.3701,-1.1323 -3.62225,2.17218 -4.74019,4.64481 -4.74019,4.64481 1.40864,-2.8192 5.54509,-4.80654 8.78709,-4.94522 3.2422,-0.1386 5.3663,0.85503 7.9599,3.00409 2.5937,2.17223 4.1589,6.60903 4.0023,10.12143 -0.1341,3.5124 -1.9228,6.3548 -1.9228,6.3548 1.2297,-1.6407 1.9676,-2.8424 2.4372,-4.0671 0.0894,-0.3697 0.1788,-0.7394 0.2236,-1.1323 1.1179,-7.0249 -3.4882,-13.65699 -10.3078,-14.78929 z"
     fill="url(#paint3_linear_2001_3188)"
     id="path32"
     style="fill:url(#paint3_linear_2001_3188)" />
  <path
     d="m 25.10965,17.446939 c 0,6.7707 -5.3215,12.2705 -11.8727,12.2705 -6.55128,0 -11.89515,-5.4998 -11.89515,-12.2705 z"
     fill="url(#paint4_linear_2001_3188)"
     id="path34"
     style="fill:url(#paint4_linear_2001_3188)" />
  <g
     opacity="0.6"
     id="g38"
     transform="translate(-3.14795,-0.557861)">
    <path
       opacity="0.6"
       d="m 27.3187,18.0048 c 0,6.6089 -5.0531,12.0162 -11.4032,12.2705 0.1566,0 0.3131,0 0.4695,0 6.5513,0 11.8728,-5.4998 11.8728,-12.2705 z"
       fill="url(#paint5_linear_2001_3188)"
       id="path36"
       style="fill:url(#paint5_linear_2001_3188)" />
  </g>
  <g
     opacity="0.7"
     id="g42"
     transform="translate(-3.14795,-0.557861)">
    <path
       opacity="0.7"
       d="M 6.1667,18.0048 H 4.48975 c 0,6.7707 5.32153,12.2705 11.87275,12.2705 0.2907,0 0.559,0 0.8273,-0.0232 C 11.041,29.79 6.1667,24.4751 6.1667,18.0048 Z"
       fill="url(#paint6_linear_2001_3188)"
       id="path40"
       style="fill:url(#paint6_linear_2001_3188)" />
  </g>
  <path
     d="m 25.08735,17.561939 c 0,-1.4095 -2.3701,-2.2183 -5.5228,-2.4956 -2.2806,-0.1849 -4.5836,0.0462 -7.222,0.8781 -2.2807,0.6932 -4.3377,0.5777 -5.83577,0.3928 -3.33155,-0.3928 -5.16498,-0.4391 -5.16498,1.2247 0,2.4033 4.74012,5.4074 11.85035,4.3675 3.5999,-0.5315 5.4557,-1.6175 7.5798,-2.357 2.303,-0.7857 4.3154,-0.7626 4.3154,-2.0105 z"
     fill="url(#paint7_linear_2001_3188)"
     id="path44"
     style="fill:url(#paint7_linear_2001_3188)" />
  <path
     d="m 17.12705,11.739039 c 1.1114,0 2.0123,-0.9311 2.0123,-2.0797 0,-1.1486 -0.9009,-2.07975 -2.0123,-2.07975 -1.1114,0 -2.0123,0.93115 -2.0123,2.07975 0,1.1486 0.9009,2.0797 2.0123,2.0797 z"
     fill="#ffffff"
     id="path46" />
  <path
     d="m 20.41315,13.287339 c 0.4693,0 0.8496,-0.3931 0.8496,-0.8781 0,-0.485 -0.3803,-0.8781 -0.8496,-0.8781 -0.4693,0 -0.8497,0.3931 -0.8497,0.8781 0,0.485 0.3804,0.8781 0.8497,0.8781 z"
     fill="#ffffff"
     id="path48" />
  <g
     opacity="0.6"
     id="g52"
     transform="translate(-3.14795,-0.557861)">
    <path
       opacity="0.6"
       d="m 26.6029,8.55293 c -0.0223,0 -0.0447,0 -0.0447,0 C 26.424,8.5298 26.3346,8.3912 26.3569,8.2294 c 0.2013,-1.06293 1.0509,-2.07976 1.0956,-2.12593 0.0894,-0.11555 0.2683,-0.11555 0.3578,-0.02313 0.1118,0.09243 0.1118,0.27728 0.0223,0.36978 -0.0223,0.02305 -0.8049,0.9705 -0.9837,1.89483 -0.0224,0.13868 -0.1342,0.20798 -0.246,0.20798 z"
       fill="url(#paint8_linear_2001_3188)"
       id="path50"
       style="fill:url(#paint8_linear_2001_3188)" />
  </g>
  <path
     opacity="0.2"
     d="m 12.41125,27.198239 c 0.3457,0 0.626,-0.2897 0.626,-0.647 0,-0.3574 -0.2803,-0.6471 -0.626,-0.6471 -0.3458,0 -0.6261,0.2897 -0.6261,0.6471 0,0.3573 0.2803,0.647 0.6261,0.647 z"
     fill="#ffffff"
     id="path54" />
  <g
     opacity="0.4"
     id="g58"
     transform="translate(-3.14795,-0.557861)">
    <path
       opacity="0.6"
       d="m 15.1997,27.5258 c -0.2459,-0.2542 -0.2459,-0.6701 0,-0.9243 0.0447,-0.0462 0.0894,-0.0693 0.1341,-0.1155 -0.0894,0.0231 -0.1565,0.0693 -0.2235,0.1386 -0.246,0.2542 -0.246,0.6701 0,0.9244 0.2012,0.2079 0.5142,0.2541 0.7602,0.1155 -0.2236,0.0924 -0.4919,0.0462 -0.6708,-0.1387 z"
       fill="url(#paint9_linear_2001_3188)"
       id="path56"
       style="fill:url(#paint9_linear_2001_3188)" />
  </g>
  <path
     opacity="0.3"
     d="m 12.63265,26.366139 c 0.0741,0 0.1343,-0.062 0.1343,-0.1386 0,-0.0766 -0.0602,-0.1387 -0.1343,-0.1387 -0.0741,0 -0.1341,0.0621 -0.1341,0.1387 0,0.0766 0.06,0.1386 0.1341,0.1386 z"
     fill="#ffffff"
     id="path60" />
  <path
     opacity="0.2"
     d="m 15.67535,26.875039 c 0.3458,0 0.6261,-0.2896 0.6261,-0.6469 0,-0.3574 -0.2803,-0.6471 -0.6261,-0.6471 -0.3457,0 -0.626,0.2897 -0.626,0.6471 0,0.3573 0.2803,0.6469 0.626,0.6469 z"
     fill="#ffffff"
     id="path62" />
  <g
     opacity="0.4"
     id="g66"
     transform="translate(-3.14795,-0.557861)">
    <path
       opacity="0.6"
       d="m 18.4648,27.2022 c -0.246,-0.2542 -0.246,-0.6701 0,-0.9243 0.0447,-0.0462 0.0894,-0.0693 0.1341,-0.1155 -0.0894,0.0231 -0.1564,0.0693 -0.2235,0.1386 -0.246,0.2542 -0.246,0.6701 0,0.9244 0.2012,0.2079 0.5143,0.2541 0.7601,0.1155 -0.2235,0.0924 -0.4918,0.0462 -0.6707,-0.1387 z"
       fill="url(#paint10_linear_2001_3188)"
       id="path64"
       style="fill:url(#paint10_linear_2001_3188)" />
  </g>
  <path
     opacity="0.3"
     d="m 15.89785,26.043139 c 0.0741,0 0.1341,-0.0621 0.1341,-0.1387 0,-0.0766 -0.06,-0.1387 -0.1341,-0.1387 -0.0741,0 -0.1342,0.0621 -0.1342,0.1387 0,0.0766 0.0601,0.1387 0.1342,0.1387 z"
     fill="#ffffff"
     id="path68" />
  <path
     opacity="0.2"
     d="m 14.06435,28.376839 c 0.2593,0 0.4695,-0.2172 0.4695,-0.4853 0,-0.268 -0.2102,-0.4853 -0.4695,-0.4853 -0.2594,0 -0.4696,0.2173 -0.4696,0.4853 0,0.2681 0.2102,0.4853 0.4696,0.4853 z"
     fill="#ffffff"
     id="path70" />
  <g
     opacity="0.4"
     id="g74"
     transform="translate(-3.14795,-0.557861)">
    <path
       opacity="0.6"
       d="m 16.9439,28.7506 c -0.1789,-0.1848 -0.1789,-0.5083 0,-0.6932 0.0224,-0.0231 0.0671,-0.0462 0.0894,-0.0694 -0.067,0.0232 -0.1118,0.0694 -0.1565,0.1156 -0.1788,0.1848 -0.1788,0.5084 0,0.6932 0.1565,0.1618 0.3801,0.1849 0.5814,0.0694 -0.1789,0.0693 -0.3801,0.0231 -0.5143,-0.1156 z"
       fill="url(#paint11_linear_2001_3188)"
       id="path72"
       style="fill:url(#paint11_linear_2001_3188)" />
  </g>
  <path
     opacity="0.3"
     d="m 14.21985,27.730039 c 0.0493,0 0.0894,-0.0414 0.0894,-0.0924 0,-0.0511 -0.0401,-0.0925 -0.0894,-0.0925 -0.0494,0 -0.0895,0.0414 -0.0895,0.0925 0,0.051 0.0401,0.0924 0.0895,0.0924 z"
     fill="#ffffff"
     id="path76" />
  <path
     opacity="0.2"
     d="m 16.94855,28.030239 c 0.2593,0 0.4695,-0.2173 0.4695,-0.4853 0,-0.268 -0.2102,-0.4852 -0.4695,-0.4852 -0.2593,0 -0.4695,0.2172 -0.4695,0.4852 0,0.268 0.2102,0.4853 0.4695,0.4853 z"
     fill="#ffffff"
     id="path78" />
  <g
     opacity="0.4"
     id="g82"
     transform="translate(-3.14795,-0.557861)">
    <path
       opacity="0.6"
       d="m 19.8282,28.4042 c -0.1789,-0.1849 -0.1789,-0.5084 0,-0.6933 0.0223,-0.0231 0.0671,-0.0462 0.0894,-0.0693 -0.0671,0.0231 -0.1118,0.0693 -0.1565,0.1156 -0.1789,0.1848 -0.1789,0.5083 0,0.6932 0.1565,0.1618 0.3801,0.1848 0.5814,0.0693 -0.1789,0.0694 -0.3802,0.0231 -0.5143,-0.1155 z"
       fill="url(#paint12_linear_2001_3188)"
       id="path80"
       style="fill:url(#paint12_linear_2001_3188)" />
  </g>
  <path
     opacity="0.3"
     d="m 17.10555,27.383639 c 0.0494,0 0.0895,-0.0414 0.0895,-0.0925 0,-0.051 -0.0401,-0.0924 -0.0895,-0.0924 -0.0494,0 -0.0894,0.0414 -0.0894,0.0924 0,0.0511 0.04,0.0925 0.0894,0.0925 z"
     fill="#ffffff"
     id="path84" />
  <path
     opacity="0.2"
     d="m 9.74825,26.967239 c 0.5681,0 1.0285,-0.476 1.0285,-1.063 0,-0.5871 -0.4604,-1.0631 -1.0285,-1.0631 -0.5681,0 -1.0285,0.476 -1.0285,1.0631 0,0.587 0.4604,1.063 1.0285,1.063 z"
     fill="#ffffff"
     id="path86" />
  <g
     opacity="0.4"
     id="g90"
     transform="translate(-3.14795,-0.557861)">
    <path
       opacity="0.6"
       d="m 12.3159,27.1327 c -0.4025,-0.416 -0.4025,-1.0861 0,-1.5021 0.067,-0.0693 0.1341,-0.1156 0.2236,-0.1617 -0.1342,0.0461 -0.246,0.1386 -0.3578,0.2311 -0.4024,0.4159 -0.4024,1.086 0,1.502 0.3355,0.3466 0.8497,0.4159 1.2522,0.1617 -0.3801,0.1618 -0.8273,0.0925 -1.118,-0.231 z"
       fill="url(#paint13_linear_2001_3188)"
       id="path88"
       style="fill:url(#paint13_linear_2001_3188)" />
  </g>
  <path
     opacity="0.3"
     d="m 10.10635,25.580639 c 0.1235,0 0.2237,-0.1034 0.2237,-0.231 0,-0.1277 -0.1002,-0.2311 -0.2237,-0.2311 -0.1234,0 -0.2235,0.1034 -0.2235,0.2311 0,0.1276 0.1001,0.231 0.2235,0.231 z"
     fill="#ffffff"
     id="path92" />
  <path
     opacity="0.2"
     d="m 18.93865,24.356439 c 0.568,0 1.0286,-0.4759 1.0286,-1.063 0,-0.5871 -0.4606,-1.063 -1.0286,-1.063 -0.568,0 -1.0285,0.4759 -1.0285,1.063 0,0.5871 0.4605,1.063 1.0285,1.063 z"
     fill="#ffffff"
     id="path94" />
  <g
     opacity="0.4"
     id="g98"
     transform="translate(-3.14795,-0.557861)">
    <path
       opacity="0.6"
       d="m 21.4824,24.5214 c -0.4025,-0.416 -0.4025,-1.0861 0,-1.5021 0.067,-0.0693 0.1341,-0.1155 0.2236,-0.1618 -0.1341,0.0463 -0.246,0.1387 -0.3578,0.2311 -0.4024,0.416 -0.4024,1.0862 0,1.5021 0.3354,0.3466 0.8497,0.416 1.2522,0.1618 -0.3801,0.1617 -0.805,0.0924 -1.118,-0.2311 z"
       fill="url(#paint14_linear_2001_3188)"
       id="path96"
       style="fill:url(#paint14_linear_2001_3188)" />
  </g>
  <path
     opacity="0.3"
     d="m 19.29545,22.969439 c 0.1235,0 0.2235,-0.1035 0.2235,-0.2311 0,-0.1277 -0.1,-0.2311 -0.2235,-0.2311 -0.1236,0 -0.2237,0.1034 -0.2237,0.2311 0,0.1276 0.1001,0.2311 0.2237,0.2311 z"
     fill="#ffffff"
     id="path100" />
  <defs
     id="defs181">
    <radialGradient
       id="paint0_radial_2001_3188"
       cx="0"
       cy="0"
       r="1"
       gradientUnits="userSpaceOnUse"
       gradientTransform="matrix(9.99335,0,0,10.3281,27.07185,4.252019)">
      <stop
         stop-color="#FFEAFF"
         stop-opacity="0.6"
         id="stop102" />
      <stop
         offset="0.6807"
         stop-color="#A087C9"
         id="stop104" />
      <stop
         offset="1"
         stop-color="#10002F"
         id="stop106" />
    </radialGradient>
    <radialGradient
       id="paint1_radial_2001_3188"
       cx="0"
       cy="0"
       r="1"
       gradientUnits="userSpaceOnUse"
       gradientTransform="matrix(24.4501,0,0,25.2691,21.51235,8.656539)">
      <stop
         stop-color="#FFEAFF"
         stop-opacity="0.6"
         id="stop109" />
      <stop
         offset="0.6807"
         stop-color="#A087C9"
         id="stop111" />
      <stop
         offset="1"
         stop-color="#10002F"
         id="stop113" />
    </radialGradient>
    <linearGradient
       id="paint2_linear_2001_3188"
       x1="14.3801"
       y1="30.8543"
       x2="18.642799"
       y2="5.40871"
       gradientUnits="userSpaceOnUse"
       gradientTransform="translate(-3.14795,-0.557861)">
      <stop
         stop-color="#81FFFF"
         id="stop116" />
      <stop
         offset="0.6202"
         stop-color="white"
         stop-opacity="0"
         id="stop118" />
    </linearGradient>
    <linearGradient
       id="paint3_linear_2001_3188"
       x1="25.1933"
       y1="9.3473797"
       x2="14.5477"
       y2="18.7985"
       gradientUnits="userSpaceOnUse"
       gradientTransform="translate(-3.14795,-0.557861)">
      <stop
         offset="0.2888"
         stop-color="white"
         id="stop121" />
      <stop
         offset="0.7796"
         stop-color="white"
         stop-opacity="0"
         id="stop123" />
    </linearGradient>
    <linearGradient
       id="paint4_linear_2001_3188"
       x1="4.4998002"
       y1="24.1329"
       x2="28.2519"
       y2="24.1329"
       gradientUnits="userSpaceOnUse"
       gradientTransform="translate(-3.14795,-0.557861)">
      <stop
         stop-color="#0002E9"
         id="stop126" />
      <stop
         offset="0.9952"
         stop-color="#FF00C7"
         id="stop128" />
    </linearGradient>
    <linearGradient
       id="paint5_linear_2001_3188"
       x1="29.376499"
       y1="19.081499"
       x2="16.047199"
       y2="31.27"
       gradientUnits="userSpaceOnUse">
      <stop
         offset="0.2888"
         stop-color="white"
         id="stop131" />
      <stop
         offset="0.7796"
         stop-color="white"
         stop-opacity="0"
         id="stop133" />
    </linearGradient>
    <linearGradient
       id="paint6_linear_2001_3188"
       x1="4.4998002"
       y1="24.1329"
       x2="17.207001"
       y2="24.1329"
       gradientUnits="userSpaceOnUse">
      <stop
         stop-color="#000292"
         id="stop136" />
      <stop
         offset="0.9952"
         stop-color="#7D00C7"
         id="stop138" />
    </linearGradient>
    <linearGradient
       id="paint7_linear_2001_3188"
       x1="4.5157499"
       y1="19.1392"
       x2="28.235901"
       y2="19.1392"
       gradientUnits="userSpaceOnUse"
       gradientTransform="translate(-3.14795,-0.557861)">
      <stop
         stop-color="#000292"
         id="stop141" />
      <stop
         offset="0.9952"
         stop-color="#BE00C7"
         id="stop143" />
    </linearGradient>
    <linearGradient
       id="paint8_linear_2001_3188"
       x1="27.8466"
       y1="5.9909"
       x2="26.059099"
       y2="8.8014202"
       gradientUnits="userSpaceOnUse">
      <stop
         offset="0.2888"
         stop-color="white"
         id="stop146" />
      <stop
         offset="0.7796"
         stop-color="white"
         stop-opacity="0"
         id="stop148" />
    </linearGradient>
    <linearGradient
       id="paint9_linear_2001_3188"
       x1="14.9252"
       y1="27.1297"
       x2="15.8712"
       y2="27.1297"
       gradientUnits="userSpaceOnUse">
      <stop
         offset="0.2888"
         stop-color="white"
         id="stop151" />
      <stop
         offset="0.7796"
         stop-color="white"
         stop-opacity="0"
         id="stop153" />
    </linearGradient>
    <linearGradient
       id="paint10_linear_2001_3188"
       x1="18.188"
       y1="26.801701"
       x2="19.134001"
       y2="26.801701"
       gradientUnits="userSpaceOnUse">
      <stop
         offset="0.2888"
         stop-color="white"
         id="stop156" />
      <stop
         offset="0.7796"
         stop-color="white"
         stop-opacity="0"
         id="stop158" />
    </linearGradient>
    <linearGradient
       id="paint11_linear_2001_3188"
       x1="16.739799"
       y1="28.455799"
       x2="17.450001"
       y2="28.455799"
       gradientUnits="userSpaceOnUse">
      <stop
         offset="0.2888"
         stop-color="white"
         id="stop161" />
      <stop
         offset="0.7796"
         stop-color="white"
         stop-opacity="0"
         id="stop163" />
    </linearGradient>
    <linearGradient
       id="paint12_linear_2001_3188"
       x1="19.614401"
       y1="28.1084"
       x2="20.324499"
       y2="28.1084"
       gradientUnits="userSpaceOnUse">
      <stop
         offset="0.2888"
         stop-color="white"
         id="stop166" />
      <stop
         offset="0.7796"
         stop-color="white"
         stop-opacity="0"
         id="stop168" />
    </linearGradient>
    <linearGradient
       id="paint13_linear_2001_3188"
       x1="11.8697"
       y1="26.489599"
       x2="13.4145"
       y2="26.489599"
       gradientUnits="userSpaceOnUse">
      <stop
         offset="0.2888"
         stop-color="white"
         id="stop171" />
      <stop
         offset="0.7796"
         stop-color="white"
         stop-opacity="0"
         id="stop173" />
    </linearGradient>
    <linearGradient
       id="paint14_linear_2001_3188"
       x1="21.044701"
       y1="23.877501"
       x2="22.5896"
       y2="23.877501"
       gradientUnits="userSpaceOnUse">
      <stop
         offset="0.2888"
         stop-color="white"
         id="stop176" />
      <stop
         offset="0.7796"
         stop-color="white"
         stop-opacity="0"
         id="stop178" />
    </linearGradient>
  </defs>
</svg>
