<?xml version="1.0" encoding="UTF-8" standalone="no"?>
<svg
   aria-label="DAO DAO Logo"
   class="overflow-visible text-icon-primary"
   fill="none"
   height="28"
   viewBox="0 0 28 28"
   width="28"
   version="1.1"
   id="svg8"
   sodipodi:docname="daodao-dark.svg"
   inkscape:version="1.2.2 (b0a8486541, 2022-12-01)"
   xmlns:inkscape="http://www.inkscape.org/namespaces/inkscape"
   xmlns:sodipodi="http://sodipodi.sourceforge.net/DTD/sodipodi-0.dtd"
   xmlns="http://www.w3.org/2000/svg"
   xmlns:svg="http://www.w3.org/2000/svg">
  <defs
     id="defs12" />
  <sodipodi:namedview
     id="namedview10"
     pagecolor="#ffffff"
     bordercolor="#666666"
     borderopacity="1.0"
     inkscape:showpageshadow="2"
     inkscape:pageopacity="0.0"
     inkscape:pagecheckerboard="0"
     inkscape:deskcolor="#d1d1d1"
     showgrid="false"
     inkscape:zoom="35.714286"
     inkscape:cx="8.4"
     inkscape:cy="14"
     inkscape:window-width="2560"
     inkscape:window-height="1371"
     inkscape:window-x="0"
     inkscape:window-y="1112"
     inkscape:window-maximized="1"
     inkscape:current-layer="svg8" />
  <circle
     cx="8.5"
     cy="14"
     fill="currentColor"
     r="1.5"
     transform="rotate(-180 8.5 14)"
     id="circle2"
     style="fill:#ffffff;fill-opacity:1" />
  <path
     clip-rule="evenodd"
     d="M14 0C6.26801 0 0 6.26801 0 14C0 21.732 6.26801 28 14 28C21.732 28 28 21.732 28 14C28 6.26801 21.732 0 14 0ZM14 1.25C6.95837 1.25 1.25 6.95837 1.25 14C1.25 21.0416 6.95837 26.75 14 26.75C21.0416 26.75 26.75 21.0416 26.75 14C26.75 6.95837 21.0416 1.25 14 1.25Z"
     fill="currentColor"
     fill-rule="evenodd"
     id="path4"
     style="fill:#ffffff;fill-opacity:1" />
  <path
     clip-rule="evenodd"
     d="M14 14C14 17.0376 16.4624 19.5 19.5 19.5C22.5376 19.5 25 17.0376 25 14C25 7.92487 20.0751 3 14 3C7.92487 3 3 7.92487 3 14C3 10.9624 5.46243 8.5 8.5 8.5C11.5376 8.5 14 10.9624 14 14ZM19.5 12.5C18.6716 12.5 18 13.1716 18 14C18 14.8284 18.6716 15.5 19.5 15.5C20.3284 15.5 21 14.8284 21 14C21 13.1716 20.3284 12.5 19.5 12.5Z"
     fill="currentColor"
     fill-rule="evenodd"
     id="path6"
     style="fill:#ffffff;fill-opacity:1" />
</svg>
