<?xml version="1.0" encoding="UTF-8" standalone="no"?>
<!-- Created with Inkscape (http://www.inkscape.org/) -->

<svg
   width="96mm"
   height="96mm"
   viewBox="0 0 96.000002 96.000002"
   version="1.1"
   id="svg5"
   xml:space="preserve"
   inkscape:version="1.2.2 (b0a8486541, 2022-12-01)"
   sodipodi:docname="logo_aetherverge_green.svg"
   inkscape:export-filename="website/public/assets/img/logo/logo.png"
   inkscape:export-xdpi="25.4"
   inkscape:export-ydpi="25.4"
   xmlns:inkscape="http://www.inkscape.org/namespaces/inkscape"
   xmlns:sodipodi="http://sodipodi.sourceforge.net/DTD/sodipodi-0.dtd"
   xmlns="http://www.w3.org/2000/svg"
   xmlns:svg="http://www.w3.org/2000/svg"><sodipodi:namedview
     id="namedview7"
     pagecolor="#ffffff"
     bordercolor="#666666"
     borderopacity="1.0"
     inkscape:showpageshadow="2"
     inkscape:pageopacity="0.0"
     inkscape:pagecheckerboard="0"
     inkscape:deskcolor="#d1d1d1"
     inkscape:document-units="mm"
     showgrid="false"
     inkscape:zoom="1.7711048"
     inkscape:cx="-62.108126"
     inkscape:cy="208.34453"
     inkscape:window-width="2560"
     inkscape:window-height="1371"
     inkscape:window-x="0"
     inkscape:window-y="1112"
     inkscape:window-maximized="1"
     inkscape:current-layer="g327" /><defs
     id="defs2" /><g
     inkscape:groupmode="layer"
     id="layer2"
     inkscape:label="Ebene 2"
     transform="translate(-63.820939,-110.31058)"><rect
       style="display:none;fill:#000000;fill-opacity:1;fill-rule:evenodd;stroke:none;stroke-width:1.808;stroke-linecap:round;stroke-linejoin:round;stroke-dasharray:none"
       id="rect1044"
       width="96"
       height="96"
       x="64.106194"
       y="110.40014" /><g
       id="g327"
       transform="translate(9.95,3.29)"><path
         id="path573"
         style="fill:#45f882;fill-opacity:1;stroke:none;stroke-width:0.100246"
         d="M 136.58114 110.31082 C 121.89342 110.52315 107.72279 117.49022 97.678084 128.06632 C 91.309737 134.67578 85.774881 142.34017 82.197375 150.78483 C 82.544454 157.67996 84.888257 164.41832 88.237834 170.41671 C 92.087404 158.74801 98.114601 145.7143 105.52205 137.60114 C 110.25086 132.8095 115.74624 128.67805 121.84095 125.80083 C 111.94049 132.17789 103.71882 141.13958 98.580355 151.76565 C 94.460465 159.72648 91.348922 168.20145 89.290482 176.92432 C 78.741002 160.89519 77.557523 139.78 84.457186 123.64902 C 78.317833 123.46516 71.698814 123.39322 65.361194 123.39322 C 60.101506 143.29262 69.169956 168.53633 79.584615 182.08111 C 84.839358 188.69924 90.813801 194.90765 97.613489 199.89605 C 97.748289 197.21399 97.92862 193.84897 98.367448 190.31214 C 100.73286 169.62268 109.38241 149.92618 121.79289 133.31717 C 123.58543 137.01394 124.0417 141.35631 124.31884 145.45596 C 124.45373 151.34711 123.74465 157.25526 121.81821 162.8487 C 119.0447 171.58971 113.43163 179.12385 106.76177 185.30159 C 106.80917 190.09211 106.91185 194.95755 106.87959 199.67487 C 120.42304 190.10409 132.03031 173.04376 137.24259 159.75069 C 135.6406 160.09449 137.68772 155.65971 138.61512 152.40076 C 141.37935 142.42471 141.04697 130.56486 138.35674 119.99757 C 139.1887 120.22878 139.57247 120.45699 140.72714 121.66775 C 139.73867 118.34363 138.13441 113.41665 136.58114 110.31082 z M 136.21527 110.9082 L 136.71343 112.47141 C 116.64922 113.04685 101.51665 124.12367 92.96416 134.39152 C 102.84099 120.67223 119.6288 111.10879 136.21527 110.9082 z M 136.77337 119.04517 C 139.04287 126.89331 140.21974 136.13522 139.11845 143.03079 C 139.08235 142.97249 139.09917 142.30841 139.15617 141.55491 C 139.61958 133.1161 138.37349 127.03576 136.77337 119.04517 z M 80.585587 123.89965 L 83.657235 123.97975 C 80.478109 132.10495 75.208279 151.03493 86.531478 174.13638 C 77.756482 161.31606 76.062842 136.14271 80.585587 123.89965 z M 123.35352 131.8015 C 124.37749 134.10412 125.22147 136.88582 125.41334 139.2398 C 127.24428 155.93892 121.18061 170.16877 116.35188 175.40969 C 121.55042 167.1351 125.07955 156.44042 124.60616 146.41094 C 124.54626 141.57713 123.8309 137.33625 122.14946 132.9575 C 122.51165 132.65054 122.82896 132.3299 123.35352 131.8015 z M 131.1179 140.14621 C 131.9293 140.36998 132.79372 140.59577 133.25524 140.76271 C 132.59096 147.63012 130.62899 157.43185 127.71811 163.60369 C 130.14513 156.03788 131.35407 148.09567 131.1179 140.14621 z M 136.66485 142.87782 C 137.07754 143.02013 137.14772 143.02888 137.42811 143.15377 L 137.42811 143.15429 C 137.47121 143.66141 134.66847 155.0638 134.10894 156.3199 C 134.80676 153.86304 135.92004 149.90543 136.66485 142.87782 z M 112.79757 145.71744 C 100.64499 168.27862 98.126562 183.06605 97.303947 198.94985 C 95.846834 182.72464 102.45319 156.83585 112.79757 145.71744 z " /></g></g></svg>
