<svg xmlns="http://www.w3.org/2000/svg" width="64" height="64" fill="none"><style>@media (prefers-color-scheme:dark){.fill{fill:#fff}}</style><path fill="#000" d="M46.113 21.679q.26.369.502.754c4.991-.92 8.297-.969 8.64.073.645 1.965-9.498 7.068-22.658 11.397a156 156 0 0 1-9.635 2.84A14.03 14.03 0 0 1 20.51 28.8c0-7.785 6.311-14.096 14.096-14.096.81 0 1.6.071 2.37.203A18 18 0 0 0 31.321 14c-9.989 0-18.087 8.098-18.087 18.087q0 .282.01.564C4.674 36.645-.639 40.461.062 42.59c.704 2.138 7.3 2.048 16.644.15 3.29 4.505 8.61 7.432 14.615 7.432 9.97 0 18.055-8.066 18.085-18.03 9.362-4.217 15.268-8.323 14.532-10.561-.732-2.229-7.861-2.036-17.825.098M7.6 38.179c-.311-.945 1.88-2.617 5.698-4.58a18 18 0 0 0 1.132 4.96c-3.97.608-6.529.531-6.829-.38zm27.007 4.717a14 14 0 0 1-8.083-2.551 177 177 0 0 0 7.447-2.27c5.178-1.703 9.989-3.542 14.18-5.374-1.693 5.886-7.112 10.195-13.542 10.195z" class="fill"/></svg>